<?xml version="1.0" standalone="no"?>
<!DOCTYPE svg PUBLIC "-//W3C//DTD SVG 20010904//EN"
 "http://www.w3.org/TR/2001/REC-SVG-20010904/DTD/svg10.dtd">
<svg version="1.0" xmlns="http://www.w3.org/2000/svg"
 width="1600.000000pt" height="1600.000000pt" viewBox="0 0 1600.000000 1600.000000"
 preserveAspectRatio="xMidYMid meet">
<metadata>
Created by potrace 1.16, written by Peter Selinger 2001-2019
</metadata>
<g transform="translate(0.000000,1600.000000) scale(0.023609,-0.023609)"
fill="#000000" stroke="none">
<path d="M31755 59924 c-33 -13 -80 -35 -105 -49 -51 -29 -142 -73 -375 -182
-88 -42 -174 -86 -192 -99 -17 -13 -42 -28 -55 -33 -40 -16 -142 -80 -175
-111 -17 -17 -64 -49 -105 -71 -40 -23 -95 -57 -121 -77 -27 -19 -83 -50 -125
-68 -42 -18 -106 -54 -140 -80 -35 -26 -87 -55 -115 -66 -100 -38 -171 -79
-261 -151 -105 -84 -191 -138 -326 -201 -58 -27 -109 -59 -130 -81 -19 -20
-44 -41 -55 -46 -11 -5 -44 -24 -72 -42 -29 -18 -99 -60 -155 -95 -57 -35
-112 -76 -123 -92 -28 -38 -99 -85 -239 -156 -65 -32 -135 -73 -155 -91 -21
-18 -77 -51 -124 -73 -61 -29 -99 -56 -135 -94 -51 -54 -126 -112 -172 -134
-82 -39 -216 -133 -285 -201 -44 -43 -105 -94 -136 -114 -68 -42 -85 -60 -154
-159 -44 -61 -70 -87 -138 -132 -85 -56 -207 -168 -207 -189 0 -7 -16 -36 -36
-65 -29 -41 -52 -60 -106 -89 -56 -29 -77 -47 -107 -92 -21 -31 -42 -67 -46
-80 -10 -32 -124 -144 -170 -165 -52 -25 -158 -133 -188 -192 -24 -48 -96
-127 -135 -148 -40 -21 -95 -71 -117 -105 -12 -20 -37 -52 -54 -71 -18 -19
-43 -51 -56 -70 -31 -47 -188 -203 -264 -263 -34 -26 -72 -65 -86 -87 -27 -43
-62 -72 -150 -123 -34 -20 -91 -66 -127 -104 -118 -120 -143 -138 -222 -159
-70 -19 -106 -17 -172 7 -49 19 -61 29 -95 82 -21 33 -39 65 -39 70 0 5 -26
49 -57 96 -89 135 -100 154 -113 194 -12 40 -84 152 -125 197 -13 14 -34 48
-47 75 -56 117 -107 194 -169 259 -56 57 -70 79 -84 127 -12 44 -30 75 -71
121 -59 67 -104 144 -104 177 0 17 -43 103 -116 232 -6 10 -38 47 -71 82 -72
75 -79 87 -98 174 -13 63 -42 147 -117 348 -27 72 -55 199 -72 325 -4 25 -16
61 -27 79 -20 33 -21 33 -71 27 -79 -11 -168 -45 -223 -85 -27 -21 -75 -50
-105 -65 -51 -27 -147 -93 -278 -191 -95 -71 -169 -145 -217 -216 -37 -54 -58
-75 -98 -95 -40 -21 -55 -24 -69 -15 -34 21 -62 -9 -121 -133 -15 -32 -40 -73
-55 -91 -15 -18 -35 -42 -45 -54 -9 -12 -31 -24 -48 -28 -21 -4 -34 -15 -43
-37 -7 -17 -20 -37 -29 -44 -9 -8 -21 -30 -28 -50 -6 -20 -25 -55 -40 -76 -16
-22 -29 -44 -29 -50 0 -5 -14 -31 -31 -58 -22 -34 -35 -46 -42 -39 -7 7 -7 18
2 34 7 13 11 35 9 48 -2 19 -9 24 -33 24 -28 0 -32 -5 -51 -60 -25 -73 -36
-94 -87 -167 -34 -49 -38 -62 -33 -92 12 -64 -5 -103 -131 -288 -13 -18 -33
-53 -45 -78 -13 -25 -38 -67 -57 -95 -57 -83 -177 -327 -190 -385 -7 -30 -28
-86 -46 -125 -19 -38 -42 -97 -53 -130 -11 -33 -38 -103 -62 -155 -52 -117
-103 -279 -135 -426 -26 -119 -69 -249 -92 -275 -7 -8 -13 -29 -13 -46 0 -18
-10 -41 -24 -56 -15 -17 -22 -34 -19 -46 3 -11 -7 -58 -22 -104 -22 -69 -35
-92 -71 -128 -26 -25 -44 -52 -44 -65 0 -22 -7 -61 -37 -199 -8 -38 -44 -160
-80 -270 -35 -110 -78 -241 -94 -290 -16 -50 -29 -111 -29 -135 0 -25 -5 -63
-11 -85 -28 -110 -40 -166 -50 -235 -11 -86 -58 -241 -94 -315 -15 -30 -28
-83 -35 -135 -5 -47 -14 -100 -20 -119 -5 -19 -14 -70 -20 -115 -6 -45 -23
-106 -36 -136 -14 -30 -29 -75 -34 -100 -35 -191 -68 -333 -107 -460 -19 -63
-39 -144 -44 -180 -5 -36 -20 -109 -34 -162 -14 -53 -25 -112 -25 -130 0 -18
-16 -78 -36 -133 -51 -146 -74 -218 -74 -236 0 -16 -88 -307 -109 -362 -6 -15
-15 -57 -21 -93 -6 -36 -24 -92 -40 -125 -17 -32 -37 -83 -45 -111 -18 -70
-55 -156 -81 -193 -12 -16 -30 -46 -40 -65 -18 -35 -125 -338 -146 -415 -20
-72 -134 -225 -167 -225 -25 0 -42 -22 -96 -125 -53 -100 -139 -227 -180 -265
-15 -14 -30 -32 -34 -41 -3 -9 -90 -91 -193 -183 -103 -91 -202 -185 -220
-208 -50 -63 -105 -116 -151 -145 -23 -14 -82 -67 -132 -118 -49 -50 -108
-104 -130 -120 -46 -34 -95 -81 -95 -92 -1 -11 -98 -110 -199 -203 -44 -41
-131 -123 -191 -181 -61 -59 -129 -122 -153 -140 -23 -18 -64 -59 -92 -92
-118 -141 -191 -202 -347 -288 -120 -66 -195 -126 -179 -142 35 -35 -34 -115
-129 -150 -29 -11 -74 -45 -127 -94 -44 -43 -129 -114 -188 -158 -59 -44 -129
-98 -154 -121 -25 -22 -57 -47 -71 -54 -14 -7 -52 -35 -85 -62 -33 -27 -125
-91 -205 -143 -233 -152 -242 -158 -289 -198 -25 -21 -66 -47 -91 -59 -25 -12
-65 -39 -88 -59 -24 -21 -67 -52 -95 -69 -29 -17 -77 -46 -107 -65 -30 -19
-67 -37 -82 -40 -15 -4 -50 -31 -79 -63 -45 -50 -152 -127 -229 -164 -14 -7
-70 -41 -125 -76 -75 -48 -134 -99 -235 -201 -119 -119 -232 -220 -354 -314
-23 -18 -47 -51 -65 -91 -21 -47 -51 -85 -118 -152 -49 -49 -98 -104 -108
-122 -11 -17 -22 -32 -26 -32 -17 0 -85 -120 -115 -204 -18 -50 -56 -145 -84
-211 -28 -66 -58 -139 -66 -161 -8 -23 -29 -57 -46 -75 -49 -55 -55 -70 -62
-150 -4 -42 -11 -91 -17 -110 -5 -19 -16 -79 -24 -134 -15 -106 -37 -208 -79
-368 -18 -67 -26 -123 -26 -180 0 -45 -6 -113 -14 -152 -24 -118 -55 -509 -56
-710 0 -77 -5 -198 -10 -268 -6 -81 -6 -157 0 -205 7 -51 6 -112 -1 -182 -6
-58 -13 -181 -15 -275 -3 -93 -9 -234 -14 -313 -10 -158 -21 -189 -84 -237
-27 -21 -96 -137 -96 -162 0 -4 -18 -25 -39 -48 -35 -36 -110 -165 -111 -190
-1 -26 -73 -105 -112 -123 -61 -28 -103 -77 -132 -154 -34 -90 -83 -175 -120
-209 -17 -16 -74 -66 -126 -112 -52 -45 -115 -113 -140 -149 -25 -36 -76 -101
-114 -144 -37 -44 -81 -102 -98 -131 -18 -32 -68 -87 -133 -145 -61 -55 -121
-120 -144 -156 -24 -36 -53 -68 -73 -78 -18 -9 -51 -38 -73 -63 -22 -25 -88
-98 -147 -163 -59 -64 -114 -132 -124 -150 -24 -49 -58 -82 -161 -159 -64 -47
-109 -91 -147 -141 -59 -80 -86 -106 -194 -192 -39 -31 -90 -81 -112 -110 -43
-59 -69 -80 -145 -119 -38 -19 -69 -48 -123 -116 -73 -91 -103 -119 -192 -175
-124 -79 -182 -126 -280 -226 -58 -59 -150 -140 -205 -180 -55 -40 -119 -91
-142 -113 -23 -22 -84 -61 -135 -86 -87 -43 -96 -51 -143 -118 -58 -83 -117
-132 -350 -290 -154 -104 -250 -173 -328 -235 -15 -13 -56 -39 -91 -58 -34
-19 -83 -51 -107 -70 -24 -20 -61 -45 -82 -55 -21 -11 -74 -52 -119 -91 -44
-39 -118 -95 -165 -125 -130 -84 -204 -132 -253 -166 -56 -38 -294 -163 -311
-163 -22 0 -79 -51 -98 -88 -28 -55 -51 -71 -146 -103 -53 -18 -104 -43 -134
-68 -36 -27 -70 -43 -121 -56 -38 -9 -85 -28 -103 -41 -17 -12 -61 -40 -97
-60 -36 -21 -87 -56 -115 -79 -27 -23 -66 -51 -85 -62 -73 -43 -376 -192 -411
-201 -35 -9 -55 -21 -175 -105 -149 -103 -173 -125 -179 -164 -4 -32 -24 -125
-39 -183 -2 -9 6 -48 19 -88 13 -41 27 -97 30 -125 4 -29 19 -104 32 -167 14
-63 30 -137 35 -165 5 -27 16 -70 24 -95 9 -25 23 -74 33 -110 10 -36 26 -83
35 -105 10 -22 31 -97 46 -166 19 -84 41 -148 64 -190 18 -35 39 -88 46 -118
8 -35 24 -67 46 -91 19 -21 34 -42 34 -48 0 -5 16 -33 36 -62 20 -29 41 -66
46 -84 6 -17 26 -48 45 -69 18 -20 33 -42 33 -47 0 -17 98 -132 128 -150 17
-10 54 -47 83 -82 28 -35 61 -69 71 -76 10 -8 32 -43 49 -78 35 -74 73 -115
135 -147 106 -54 236 -140 261 -174 74 -96 92 -111 169 -137 57 -19 88 -37
129 -74 30 -27 66 -53 82 -57 15 -3 48 -21 73 -39 72 -52 179 -112 307 -170
232 -106 338 -159 363 -181 45 -41 102 -75 127 -75 35 0 123 -47 164 -89 36
-36 57 -48 204 -115 82 -38 185 -103 185 -117 0 -4 30 -29 66 -55 36 -26 76
-63 88 -83 18 -27 39 -42 87 -61 73 -28 119 -70 154 -140 29 -57 58 -80 101
-80 17 0 58 -15 92 -32 99 -54 285 -184 313 -220 25 -31 151 -111 240 -151 19
-9 52 -30 73 -46 20 -16 67 -40 102 -51 45 -15 89 -41 139 -82 41 -32 103 -71
137 -85 35 -14 85 -40 113 -58 27 -18 84 -49 125 -68 41 -20 104 -60 140 -89
117 -96 124 -100 295 -161 33 -12 92 -44 130 -71 70 -50 93 -66 194 -143 30
-23 66 -45 80 -48 14 -4 53 -33 87 -66 76 -75 88 -83 155 -108 63 -25 182
-104 204 -138 9 -12 34 -35 58 -50 95 -60 247 -204 247 -234 0 -13 87 -96 143
-137 31 -22 56 -54 81 -100 22 -43 70 -103 131 -167 117 -122 138 -151 165
-237 16 -50 35 -82 74 -126 72 -81 93 -118 101 -182 11 -85 54 -170 101 -200
52 -34 90 -50 117 -50 12 0 54 22 94 49 51 35 89 53 130 61 67 13 169 55 198
81 26 23 69 39 107 39 18 0 69 22 127 54 149 83 179 96 281 117 113 23 146 33
225 66 33 14 69 29 80 33 11 4 45 19 75 34 30 14 64 26 75 26 11 0 44 27 76
61 52 57 61 62 123 75 45 9 132 47 269 115 116 57 229 106 264 115 90 21 108
29 155 72 72 66 130 83 143 42 8 -27 42 -26 85 3 50 32 106 54 175 68 33 6 73
20 88 31 25 18 28 25 23 53 -12 60 55 97 337 190 145 47 328 127 421 186 34
20 95 47 136 60 80 23 129 48 170 85 14 13 73 43 131 67 68 29 128 62 167 94
34 27 76 54 94 60 18 7 83 32 143 58 61 25 134 53 164 61 57 15 104 36 331
149 95 47 168 76 210 84 36 7 99 29 140 48 115 55 203 81 308 93 54 6 122 15
152 20 61 9 283 64 298 74 12 7 280 49 492 76 170 22 364 59 389 75 7 3 47 6
91 6 44 0 92 4 108 10 15 6 70 15 122 20 97 9 200 24 280 40 25 5 61 11 80 14
82 10 182 46 205 73 l24 27 35 -19 c35 -19 36 -19 53 2 14 17 37 24 103 32 47
6 101 11 120 11 19 0 58 11 85 24 58 27 181 45 316 46 104 0 158 6 359 38 74
12 167 27 205 32 204 28 306 41 360 45 207 16 418 36 467 42 35 5 78 4 108 -2
46 -9 53 -8 82 14 18 13 53 27 78 32 211 38 364 55 595 68 365 21 463 29 507
41 51 15 306 14 483 -1 66 -5 145 -12 175 -14 30 -3 80 -12 110 -21 30 -9 91
-20 136 -25 66 -7 91 -15 145 -47 56 -33 72 -38 129 -39 80 -1 115 -9 160 -40
19 -12 80 -39 135 -58 55 -19 118 -42 140 -50 22 -8 49 -15 61 -16 11 0 40
-13 65 -28 24 -15 60 -34 79 -42 19 -8 52 -32 73 -53 30 -30 62 -48 132 -72
67 -24 111 -48 165 -89 40 -31 96 -68 125 -81 28 -14 87 -54 130 -91 44 -36
109 -79 145 -95 35 -16 73 -37 83 -47 27 -24 129 -150 162 -200 16 -24 49 -54
79 -71 63 -35 121 -93 148 -145 11 -22 26 -74 33 -117 13 -85 31 -119 73 -146
34 -21 99 -90 117 -123 23 -44 34 -136 46 -376 13 -251 9 -335 -23 -462 -31
-126 -75 -167 -104 -97 -8 19 -18 35 -22 35 -18 0 -43 -62 -49 -122 -6 -57
-33 -130 -78 -208 -12 -21 -12 -28 0 -47 37 -56 13 -120 -87 -230 -38 -43 -76
-91 -85 -108 -8 -16 -30 -46 -48 -65 -18 -19 -59 -73 -91 -120 -31 -47 -101
-128 -155 -181 -54 -52 -115 -119 -137 -147 -56 -76 -113 -120 -182 -143 -47
-16 -70 -32 -110 -76 -28 -31 -57 -67 -65 -82 -8 -14 -30 -37 -50 -51 -20 -14
-76 -56 -126 -93 -49 -38 -133 -89 -186 -114 -65 -30 -114 -61 -152 -97 -86
-81 -230 -167 -366 -219 -77 -29 -165 -95 -193 -145 -11 -21 -30 -46 -42 -57
-11 -10 -20 -27 -20 -38 0 -18 5 -19 68 -13 57 6 79 3 144 -18 97 -32 124 -36
273 -40 66 -2 181 -13 257 -25 101 -16 176 -21 290 -20 100 1 174 -3 213 -12
78 -18 615 -19 725 -2 41 7 168 15 282 19 194 7 208 6 240 -13 26 -15 48 -19
98 -16 80 3 158 16 230 38 194 59 230 64 250 39 11 -12 10 -24 -3 -68 -10 -29
-17 -64 -17 -78 0 -13 -7 -46 -16 -71 -17 -51 -69 -100 -175 -169 -31 -20 -69
-48 -85 -63 -16 -14 -76 -67 -134 -118 -58 -50 -108 -96 -112 -103 -7 -11 -69
-51 -150 -96 -17 -9 -40 -26 -52 -37 -12 -12 -50 -34 -83 -50 -38 -19 -72 -44
-90 -68 -57 -77 -147 -137 -278 -187 -131 -50 -166 -68 -231 -119 -30 -23 -74
-55 -97 -72 -24 -16 -66 -49 -94 -71 -42 -34 -67 -45 -130 -58 -43 -9 -101
-25 -129 -36 -27 -11 -79 -29 -115 -39 -35 -10 -83 -28 -105 -39 -46 -23 -217
-82 -409 -141 -139 -42 -221 -74 -245 -96 -8 -7 -58 -23 -110 -35 -52 -12
-109 -28 -127 -36 -17 -8 -66 -19 -108 -24 -41 -5 -85 -14 -96 -20 -111 -60
-306 -105 -599 -138 -327 -38 -392 -44 -415 -38 -33 8 -180 -16 -365 -59 -208
-49 -275 -58 -381 -53 -89 4 -99 3 -178 -29 -76 -31 -91 -34 -170 -31 -49 1
-99 -3 -116 -9 -45 -18 -287 -63 -395 -74 -52 -5 -174 -14 -270 -19 -96 -5
-199 -15 -228 -21 -30 -6 -63 -8 -75 -5 -11 3 -68 1 -126 -5 -144 -13 -175
-17 -208 -30 -42 -16 -229 -32 -388 -34 -82 -1 -169 -8 -210 -17 -42 -10 -153
-19 -280 -23 -226 -7 -430 -26 -535 -50 -39 -9 -87 -13 -120 -9 -50 5 -63 2
-140 -34 -159 -76 -394 -121 -705 -136 -38 -2 -75 -11 -100 -25 -51 -27 -76
-27 -121 4 -20 14 -42 25 -48 25 -7 0 -50 -13 -96 -29 -72 -24 -107 -30 -230
-35 -157 -7 -200 -13 -178 -27 7 -5 25 -9 40 -9 58 0 95 -33 66 -58 -46 -38
-457 -140 -650 -162 -48 -6 -120 -22 -160 -36 -40 -15 -113 -32 -163 -40 -204
-29 -390 -79 -555 -147 -105 -44 -195 -69 -226 -61 -33 9 -59 -3 -121 -53 -60
-49 -96 -63 -159 -63 -57 0 -181 -33 -246 -66 -29 -14 -79 -51 -110 -80 -31
-30 -63 -54 -70 -54 -7 0 -33 -11 -58 -24 -25 -13 -65 -29 -90 -36 -25 -7 -65
-22 -90 -35 -25 -12 -80 -30 -123 -39 -83 -17 -125 -34 -147 -61 -8 -10 -55
-44 -105 -77 -49 -33 -101 -70 -115 -83 -29 -27 -108 -73 -200 -117 -142 -68
-378 -204 -429 -247 -29 -25 -74 -61 -100 -80 -25 -18 -80 -66 -121 -106 -49
-47 -101 -86 -150 -111 -72 -37 -141 -79 -226 -135 -21 -14 -60 -38 -87 -53
-26 -15 -65 -50 -88 -78 -22 -28 -61 -67 -87 -86 -26 -20 -65 -51 -86 -69 -22
-18 -44 -33 -49 -33 -6 0 -35 -18 -64 -41 -30 -22 -76 -50 -101 -61 -32 -14
-78 -52 -142 -118 -63 -64 -120 -112 -168 -140 -41 -24 -89 -63 -110 -88 -20
-25 -53 -61 -72 -81 -40 -41 -338 -295 -416 -356 -29 -22 -64 -60 -80 -85 -36
-57 -59 -77 -109 -92 -39 -12 -74 -43 -205 -184 -53 -57 -205 -195 -266 -241
-23 -18 -68 -69 -100 -115 -58 -83 -200 -231 -284 -296 -85 -65 -109 -90 -134
-141 -18 -34 -46 -66 -87 -98 -97 -76 -150 -131 -228 -241 -40 -56 -101 -130
-137 -164 -35 -35 -67 -72 -70 -83 -3 -11 -17 -45 -31 -76 -22 -51 -31 -60
-93 -94 -90 -50 -108 -70 -121 -139 -5 -31 -16 -75 -24 -96 -15 -44 -94 -147
-175 -230 -29 -30 -59 -72 -66 -94 -8 -22 -21 -47 -28 -56 -13 -14 -45 -94
-91 -224 -10 -27 -32 -63 -50 -80 -18 -17 -35 -45 -38 -61 -3 -17 -11 -50 -19
-73 -11 -40 -11 -45 6 -57 20 -15 57 -6 88 21 14 14 22 12 69 -12 l53 -26 51
17 c27 10 74 29 102 42 42 20 75 25 165 30 95 5 124 10 181 35 58 25 79 29
155 28 48 -1 119 6 157 14 39 9 82 16 97 16 14 0 95 14 180 31 243 49 309 64
369 81 36 10 209 6 259 -6 13 -3 72 0 130 8 82 11 173 12 420 5 173 -4 358
-10 410 -14 52 -3 205 -10 340 -15 135 -5 290 -16 345 -25 55 -9 143 -23 195
-31 52 -8 149 -26 215 -39 66 -13 164 -29 219 -35 54 -6 106 -15 116 -20 10
-6 45 -10 77 -10 59 0 147 -16 283 -50 95 -24 377 -78 495 -94 99 -14 118 -21
155 -61 14 -15 43 -40 66 -56 37 -25 44 -27 77 -17 30 9 49 8 99 -6 105 -29
171 -48 203 -58 17 -6 48 -14 70 -18 143 -28 212 -48 300 -90 55 -26 122 -52
149 -59 26 -6 82 -29 125 -50 61 -31 91 -39 153 -44 47 -3 95 -14 125 -27 43
-20 173 -59 263 -79 52 -12 161 -49 174 -60 22 -19 215 -91 243 -91 15 0 71
-16 124 -34 53 -19 116 -37 140 -40 46 -8 137 -33 254 -72 39 -12 132 -36 207
-53 76 -16 152 -37 170 -45 81 -36 175 -69 207 -72 50 -4 118 -23 170 -46 24
-10 73 -23 110 -27 36 -5 93 -19 126 -31 33 -12 92 -26 130 -31 242 -30 339
-41 490 -53 109 -10 193 -22 233 -35 34 -11 86 -23 114 -27 59 -8 98 -39 98
-78 0 -30 -49 -70 -145 -116 -38 -18 -88 -50 -110 -70 -31 -27 -56 -40 -104
-50 -106 -22 -158 -47 -232 -107 -21 -17 -58 -38 -81 -46 -24 -8 -115 -38
-203 -67 -173 -58 -410 -152 -435 -174 -27 -25 -99 -56 -126 -56 -26 0 -90
-33 -109 -56 -17 -21 -129 -84 -149 -84 -11 0 -47 -8 -80 -19 -34 -10 -95 -29
-136 -41 -75 -23 -97 -33 -246 -122 -60 -36 -91 -48 -121 -48 -55 0 -131 -27
-177 -63 -35 -27 -50 -32 -125 -37 -47 -4 -95 -11 -107 -18 -26 -14 -211 -62
-281 -72 -29 -5 -67 -13 -85 -18 -161 -49 -217 -67 -241 -79 -23 -12 -35 -11
-86 2 -73 19 -101 19 -101 1 0 -20 59 -37 120 -35 43 2 65 -4 143 -44 51 -25
103 -49 117 -53 14 -3 30 -10 35 -14 20 -14 105 -30 325 -60 36 -5 81 -14 100
-20 19 -5 51 -10 72 -10 68 0 339 -48 478 -85 92 -25 261 -63 328 -75 35 -6
78 -17 95 -25 76 -33 138 -46 187 -39 45 6 58 3 124 -31 49 -25 96 -40 137
-45 35 -5 96 -17 134 -28 96 -28 224 -68 260 -80 17 -6 64 -18 105 -27 41 -9
120 -32 175 -51 55 -19 125 -41 155 -50 30 -9 84 -28 120 -44 39 -17 93 -31
135 -35 39 -4 112 -20 163 -36 51 -16 102 -29 115 -29 12 0 54 -9 92 -19 39
-11 108 -27 154 -36 46 -9 102 -24 125 -32 23 -8 73 -21 112 -28 42 -8 115
-35 178 -66 59 -28 126 -53 149 -56 23 -2 58 -8 77 -13 19 -5 73 -19 120 -30
85 -21 113 -32 275 -100 53 -22 123 -43 170 -50 44 -7 105 -21 135 -32 37 -13
92 -21 165 -25 112 -5 247 -32 399 -80 101 -32 171 -66 217 -108 41 -37 136
-74 264 -104 122 -28 210 -54 273 -80 29 -11 65 -21 81 -21 28 0 220 -63 323
-106 32 -13 68 -24 80 -24 28 0 162 -45 279 -94 48 -20 108 -39 135 -42 27 -4
76 -19 109 -34 88 -40 126 -50 165 -44 31 5 43 -1 105 -48 39 -29 86 -61 105
-71 19 -10 46 -24 60 -32 14 -8 46 -15 73 -15 117 0 707 -167 952 -268 98 -41
331 -121 398 -136 37 -9 81 -23 98 -31 16 -9 55 -20 87 -26 35 -6 87 -27 136
-56 58 -33 96 -48 140 -53 34 -5 88 -21 121 -37 33 -16 96 -37 140 -47 237
-53 367 -89 441 -125 45 -21 97 -42 115 -46 42 -9 141 -67 192 -112 46 -41 83
-44 97 -8 6 17 17 25 32 25 26 0 106 -40 154 -76 17 -13 41 -24 53 -24 12 0
35 -7 52 -15 16 -9 34 -13 39 -10 5 3 26 -1 46 -10 20 -8 49 -15 65 -15 26 0
82 -21 151 -57 16 -8 65 -28 110 -44 71 -26 92 -29 140 -24 49 6 61 4 84 -14
15 -12 36 -21 48 -21 45 -1 158 -30 205 -53 57 -29 129 -50 226 -67 39 -7 90
-19 115 -26 25 -8 79 -26 120 -39 41 -13 100 -32 131 -43 30 -11 95 -30 143
-42 48 -12 106 -30 129 -41 23 -10 59 -19 79 -19 40 0 202 -41 236 -59 12 -6
43 -16 69 -21 27 -5 95 -21 152 -34 58 -13 110 -22 117 -19 6 2 38 -7 71 -20
66 -27 99 -34 187 -42 33 -3 99 -19 147 -35 48 -17 108 -30 133 -30 25 0 72
-9 103 -19 32 -11 85 -27 118 -36 33 -9 80 -22 105 -30 25 -8 74 -17 110 -20
36 -4 105 -20 154 -36 49 -17 139 -38 200 -49 61 -10 146 -30 189 -45 70 -24
84 -26 130 -17 33 6 60 7 77 0 22 -8 77 -20 290 -59 30 -6 98 -17 150 -25 52
-8 127 -19 165 -26 39 -6 88 -11 110 -11 22 1 84 -8 139 -18 64 -12 142 -19
225 -19 70 0 160 -7 204 -15 54 -10 166 -16 355 -19 328 -5 738 -25 1112 -56
144 -12 960 -12 1095 0 107 9 368 23 665 36 406 17 650 34 717 50 62 15 80 16
126 5 111 -27 490 2 577 44 14 6 52 17 85 24 33 7 71 17 85 21 14 5 54 12 90
15 36 3 95 13 132 22 39 9 81 13 100 9 99 -21 421 6 489 40 14 7 36 10 47 7
12 -3 32 1 44 9 44 28 152 49 205 39 29 -6 64 -6 84 -1 78 20 136 38 156 49
12 6 47 11 78 11 40 0 69 7 105 26 28 15 57 23 68 20 10 -4 39 1 63 10 56 20
58 20 218 39 73 8 152 20 175 26 22 6 59 13 81 16 49 5 154 29 215 48 25 8 97
22 160 31 281 38 380 57 455 84 112 41 249 70 329 70 26 0 71 9 99 21 29 12
68 27 87 35 19 7 66 19 105 24 38 6 88 19 110 29 22 10 73 26 114 36 41 10 97
27 125 37 28 11 78 28 111 38 272 85 292 90 357 90 73 0 112 11 144 41 17 16
39 21 95 24 41 2 108 11 149 20 41 10 86 19 100 22 14 2 52 10 85 18 33 7 87
19 120 26 80 16 189 52 267 88 35 16 86 34 113 39 28 6 88 24 135 41 47 17 99
31 117 31 18 0 65 18 110 41 43 23 102 54 130 70 29 15 74 31 100 34 27 4 62
11 78 16 17 6 54 14 84 19 29 5 88 27 130 49 83 43 108 49 221 55 41 3 100 13
131 24 30 11 75 23 100 27 24 4 67 22 95 40 27 18 69 42 92 54 50 26 183 61
230 61 18 0 50 9 72 20 22 11 46 20 54 20 15 0 124 46 176 74 14 7 51 16 83
19 31 3 72 14 90 25 17 11 79 34 137 52 58 17 146 44 195 60 98 31 251 69 386
95 74 15 91 15 114 4 46 -23 51 -40 25 -94 -32 -66 -86 -154 -109 -179 -11
-12 -44 -69 -72 -126 -29 -58 -71 -126 -93 -152 -39 -45 -80 -120 -155 -280
-17 -37 -31 -69 -31 -71 0 -3 -19 -38 -42 -79 -57 -101 -94 -208 -118 -340
-19 -106 -52 -213 -85 -278 -23 -45 -34 -109 -40 -241 -3 -68 -10 -155 -15
-194 -28 -198 -29 -353 -5 -734 6 -93 9 -104 28 -109 19 -5 19 -6 2 -18 -15
-11 -15 -17 -5 -48 15 -45 53 -76 96 -76 25 0 48 12 93 50 34 28 61 55 61 60
0 6 -12 10 -27 10 -16 0 -35 5 -43 10 -11 7 -5 10 25 10 59 0 83 9 89 33 3 12
24 45 46 72 22 28 51 68 66 90 14 22 43 58 64 80 40 42 94 115 186 253 31 45
72 95 92 110 20 15 75 67 122 117 47 49 104 108 128 130 24 22 103 100 175
173 73 72 138 132 144 132 18 0 175 93 208 124 58 54 211 169 261 198 33 18
56 40 64 58 16 38 94 95 141 104 19 3 57 20 83 36 55 35 158 80 183 80 28 0
113 54 166 104 27 25 53 46 58 46 15 0 206 117 287 176 40 29 94 60 120 70 26
9 77 30 114 46 36 15 73 25 82 22 17 -6 119 43 171 81 17 13 48 30 70 39 22
10 49 25 60 35 11 10 40 29 65 41 25 13 63 35 85 50 22 15 69 42 105 60 36 19
76 42 90 51 41 27 122 70 162 84 20 8 68 36 106 64 80 59 135 84 162 76 34
-11 300 100 300 125 0 20 -13 40 -26 40 -35 0 -7 30 64 68 42 23 88 49 102 57
14 8 47 24 73 36 27 12 80 49 118 83 127 112 146 126 238 172 55 28 101 59
114 76 12 16 55 50 95 75 39 25 72 48 72 52 0 4 35 45 78 90 81 87 199 190
268 234 55 34 89 77 109 137 9 27 20 50 24 50 9 0 126 131 211 235 86 106 146
194 188 276 44 86 82 140 129 181 31 29 138 178 165 233 9 17 18 47 22 67 8
47 38 115 86 198 21 36 45 86 55 112 9 25 30 58 45 73 l29 27 27 -21 c15 -11
32 -21 38 -21 7 0 27 -15 44 -33 42 -43 70 -132 82 -257 5 -52 16 -111 24
-130 8 -19 24 -64 37 -99 13 -36 44 -92 69 -126 53 -68 65 -101 75 -195 15
-155 49 -221 120 -234 32 -6 95 -65 95 -90 0 -16 92 -140 150 -201 31 -33 75
-94 98 -136 44 -80 59 -93 96 -83 24 6 97 -24 137 -57 15 -11 77 -34 140 -50
151 -39 247 -88 298 -152 11 -13 11 -20 1 -32 -26 -31 -13 -35 265 -81 88 -15
175 -29 193 -31 22 -4 39 0 52 12 21 19 76 15 137 -10 56 -24 179 -28 293 -11
135 20 184 25 355 35 178 11 208 22 257 86 43 57 47 78 17 103 -70 56 -95 81
-129 131 -54 80 -73 95 -100 81 -34 -18 -73 -8 -93 25 -89 144 -146 253 -152
288 -21 131 -40 198 -72 257 -20 36 -44 89 -54 119 -11 30 -26 62 -35 72 -11
12 -16 49 -19 150 -3 74 -9 163 -14 199 -19 136 66 596 144 786 19 46 41 115
49 155 9 41 28 91 45 118 18 28 37 77 46 121 30 145 94 268 141 270 35 1 87
99 103 193 29 170 85 286 237 492 67 91 71 99 79 169 10 77 41 147 97 216 24
30 57 80 72 112 16 31 46 77 66 102 21 26 42 61 45 79 4 17 15 46 25 63 9 17
25 54 35 83 19 59 126 274 148 300 17 19 67 116 67 130 0 6 17 34 38 64 38 55
58 95 132 272 24 55 56 115 71 133 16 18 29 37 29 42 0 18 66 115 97 143 34
30 93 137 93 169 0 10 8 35 19 56 10 20 28 69 41 107 13 39 38 100 56 137 30
59 41 71 85 93 60 31 78 63 108 204 48 221 85 302 159 350 33 22 82 107 82
143 0 9 15 37 34 61 19 25 42 60 51 78 16 30 16 35 1 60 -9 15 -16 37 -16 50
0 33 55 126 112 188 56 61 62 74 128 271 27 80 66 183 88 230 21 47 47 109 57
138 9 30 37 86 61 125 36 58 44 80 44 120 0 36 9 67 36 120 20 40 49 104 64
142 15 39 37 86 48 105 11 19 32 81 46 136 14 56 44 138 66 183 22 45 40 92
40 104 0 28 21 101 54 194 14 40 26 90 26 110 0 21 7 49 15 63 69 120 96 210
115 385 11 97 26 158 46 191 16 26 84 258 84 285 0 11 7 36 16 57 8 20 17 67
19 104 3 37 11 78 20 91 16 25 27 70 50 212 23 143 33 311 34 590 1 143 2 280
2 305 1 49 -6 155 -21 296 -10 96 -7 119 41 280 l22 70 136 -4 c87 -2 163 -11
213 -23 52 -13 112 -19 190 -19 62 0 176 -7 253 -15 107 -12 212 -14 450 -10
171 3 317 8 325 10 8 2 125 9 260 15 242 11 322 22 365 53 17 13 17 17 6 31
-12 14 -31 16 -119 14 -71 -2 -106 1 -109 8 -4 12 21 23 112 49 33 9 83 23
110 32 28 9 95 19 150 23 93 7 244 39 343 74 24 9 94 49 155 90 84 55 127 92
172 146 67 80 89 94 157 104 61 9 96 37 103 84 4 20 11 52 17 70 20 67 -6 97
-82 93 -60 -2 -261 29 -346 55 -45 13 -88 24 -95 24 -31 0 -196 55 -224 75
-16 12 -52 31 -80 42 -90 37 -180 98 -183 124 -3 25 -92 86 -229 156 -83 43
-278 214 -303 267 -36 73 -64 112 -139 192 -96 103 -115 129 -152 205 -17 35
-57 91 -89 125 -47 51 -64 79 -95 160 -41 108 -149 329 -164 338 -5 4 -23 30
-40 59 -29 51 -37 75 -101 292 -50 169 -58 188 -93 225 -44 47 -75 102 -87
157 -6 25 -24 80 -39 122 -47 124 -94 286 -156 546 -20 83 -49 191 -65 240
-16 50 -33 116 -39 148 -6 32 -17 68 -26 80 -8 12 -15 28 -15 36 0 8 -12 39
-26 69 -19 40 -28 78 -31 136 -3 45 -10 89 -15 100 -6 10 -17 57 -25 105 -26
152 -31 175 -47 220 -9 24 -16 61 -16 82 0 21 -9 71 -20 111 -18 67 -18 78 -6
132 16 67 15 73 -32 141 -42 62 -50 81 -62 159 -5 33 -17 95 -25 136 -9 41
-20 102 -24 135 -20 133 -61 343 -76 385 -9 25 -18 88 -20 140 -2 54 -12 127
-24 170 -11 41 -21 97 -21 124 0 147 -52 509 -90 631 -12 39 -26 108 -30 155
-4 47 -16 105 -25 130 -31 81 -44 145 -38 187 3 24 -1 61 -10 89 -8 27 -18 68
-21 92 -4 23 -17 75 -30 115 -13 39 -29 113 -36 162 -7 50 -17 101 -23 115 -5
14 -15 90 -23 170 -8 90 -21 167 -34 202 -12 34 -20 83 -20 120 0 62 -8 103
-49 263 -11 44 -20 93 -21 109 0 16 -6 52 -14 80 -34 123 -66 275 -66 316 0
25 -9 106 -20 180 -12 74 -26 169 -31 210 -6 41 -20 120 -31 175 -11 55 -29
152 -39 215 -9 63 -25 140 -34 170 -9 31 -17 99 -19 155 -2 77 -9 118 -29 178
-15 42 -27 87 -27 100 0 12 -14 72 -31 132 -16 61 -38 153 -49 205 -27 136
-65 292 -95 390 -21 69 -27 115 -32 240 -5 138 -9 164 -35 235 -16 44 -37 114
-47 155 -9 41 -20 81 -25 88 -7 11 -18 76 -32 184 -6 48 -48 185 -68 223 -9
17 -16 46 -16 65 0 19 -16 71 -36 115 -48 106 -61 149 -68 222 -3 35 -15 77
-27 97 -11 20 -25 66 -30 103 -27 202 -51 300 -91 365 -41 67 -60 118 -121
323 -25 83 -55 176 -66 207 -14 37 -21 81 -21 126 0 71 -17 181 -30 196 -5 4
-13 -1 -19 -13 -7 -12 -18 -21 -25 -21 -16 0 -102 217 -111 280 -4 25 -13 65
-20 90 -8 25 -19 71 -24 104 -11 62 -45 125 -118 218 -42 52 -78 132 -178 383
-76 193 -109 256 -163 313 -63 67 -103 123 -122 172 -8 19 -36 71 -63 115 -27
44 -60 101 -73 127 -36 71 -122 196 -176 256 -38 43 -148 212 -148 228 0 15
-88 122 -156 189 -62 61 -89 96 -113 150 -85 183 -91 190 -169 179 -45 -6 -51
-4 -62 16 -27 51 -204 231 -265 271 -36 23 -80 60 -99 83 -36 45 -217 174
-280 200 -21 9 -52 27 -70 41 -101 82 -223 165 -250 170 -17 4 -69 18 -115 32
-81 24 -103 38 -148 95 -18 24 -188 87 -290 108 -99 21 -187 19 -219 -4 -14
-11 -10 -18 29 -61 25 -26 51 -60 58 -74 28 -56 141 -198 192 -241 64 -53 140
-147 184 -227 18 -32 56 -85 85 -118 29 -33 65 -78 79 -100 63 -98 76 -122 83
-149 4 -17 34 -55 71 -90 54 -52 66 -70 83 -126 11 -36 23 -85 27 -110 9 -53
76 -157 109 -170 14 -5 31 -28 44 -57 12 -26 30 -61 42 -78 11 -16 20 -37 20
-45 0 -19 69 -128 128 -203 37 -48 44 -65 56 -138 10 -60 27 -111 60 -179 89
-185 179 -431 239 -655 24 -88 82 -296 113 -403 11 -39 23 -58 45 -71 92 -56
164 -215 198 -433 12 -76 21 -171 21 -211 0 -41 7 -94 15 -118 9 -24 20 -75
26 -114 11 -79 38 -126 85 -149 38 -18 45 -36 79 -211 13 -71 31 -159 40 -195
8 -36 21 -110 29 -166 8 -55 31 -161 50 -235 20 -74 36 -149 36 -167 0 -19 14
-66 32 -105 28 -63 33 -88 39 -192 8 -132 37 -290 75 -403 44 -132 62 -226 68
-350 4 -84 11 -130 21 -145 21 -32 45 -115 45 -157 0 -19 7 -60 15 -90 8 -30
19 -100 25 -155 21 -194 42 -370 47 -398 6 -31 53 -61 81 -53 28 9 43 -66 52
-249 8 -158 42 -457 60 -525 11 -39 55 -437 64 -575 4 -49 15 -146 26 -215 19
-125 55 -412 65 -525 6 -60 16 -196 34 -487 6 -86 17 -207 25 -270 48 -363 69
-608 63 -717 -4 -73 1 -131 18 -241 56 -348 58 -379 60 -1100 2 -471 6 -690
14 -725 9 -36 12 -305 11 -990 -1 -878 -5 -1076 -29 -1314 -5 -52 -7 -276 -4
-498 4 -377 3 -410 -16 -501 -28 -135 -39 -250 -51 -517 -6 -126 -20 -304 -31
-395 -12 -91 -18 -183 -15 -205 3 -23 1 -70 -4 -105 -5 -36 -18 -168 -30 -295
-11 -126 -27 -267 -36 -313 -8 -45 -19 -142 -24 -215 -5 -72 -13 -161 -19
-197 -6 -36 -20 -144 -31 -240 -12 -96 -25 -206 -30 -245 -5 -38 -12 -115 -15
-170 -4 -55 -13 -134 -20 -175 -28 -164 -58 -311 -87 -432 -25 -105 -34 -129
-51 -134 -15 -5 -25 -1 -35 15 -8 11 -20 21 -27 21 -15 0 -21 -23 -31 -115 -4
-33 -11 -71 -17 -85 -5 -14 -16 -74 -23 -135 -6 -60 -22 -141 -34 -180 -11
-38 -38 -126 -60 -195 -21 -69 -42 -143 -48 -165 -5 -22 -22 -78 -36 -125 -50
-160 -57 -185 -66 -265 -5 -44 -30 -143 -55 -219 -25 -77 -45 -144 -45 -150 0
-36 -23 -86 -39 -86 -14 0 -20 14 -29 68 -6 37 -17 101 -26 142 -20 104 -49
395 -41 420 4 12 3 39 0 62 l-7 41 -18 -22 c-12 -17 -23 -22 -38 -17 -28 9
-49 84 -72 256 -10 74 -28 177 -39 228 -12 52 -22 125 -24 163 -2 62 0 70 22
85 22 16 23 21 18 93 -14 187 -28 302 -47 381 -11 47 -26 112 -33 145 -11 52
-16 60 -36 60 -24 0 -21 -7 -95 187 -14 38 -35 112 -46 165 -11 54 -29 125
-40 158 -11 33 -26 94 -34 135 -28 140 -54 255 -71 305 -24 70 -77 156 -94
153 -8 -2 -20 -25 -26 -56 -7 -29 -23 -64 -36 -78 -22 -24 -24 -33 -26 -182
-4 -199 -23 -323 -80 -537 -25 -93 -49 -204 -54 -245 -18 -162 -28 -211 -57
-277 -35 -77 -65 -154 -116 -295 -36 -102 -72 -164 -121 -212 -47 -47 -76
-120 -78 -201 -2 -65 -5 -75 -44 -133 -32 -45 -43 -72 -43 -99 0 -45 -37 -129
-81 -184 -17 -21 -41 -66 -54 -99 -13 -33 -57 -111 -98 -173 -69 -103 -197
-343 -197 -368 0 -23 -65 -143 -101 -187 -32 -38 -39 -54 -39 -90 0 -74 -48
-154 -129 -213 -42 -30 -72 -79 -122 -203 -21 -53 -40 -80 -78 -113 -70 -61
-116 -128 -155 -224 -19 -46 -55 -122 -80 -169 -25 -47 -61 -116 -80 -155 -19
-38 -55 -95 -80 -125 -91 -109 -139 -176 -165 -230 -15 -31 -36 -69 -48 -86
-12 -16 -33 -54 -47 -84 -25 -54 -140 -226 -182 -272 -11 -13 -33 -44 -48 -71
-15 -26 -52 -76 -83 -110 -30 -34 -63 -78 -74 -97 -10 -19 -42 -58 -71 -86
-47 -45 -63 -73 -127 -215 -90 -203 -162 -313 -265 -409 -43 -41 -70 -78 -103
-145 -25 -49 -67 -117 -92 -150 -26 -33 -58 -85 -70 -115 -13 -30 -36 -75 -52
-101 -16 -25 -58 -106 -93 -181 -61 -127 -94 -173 -149 -205 -8 -4 -22 -24
-32 -43 -9 -19 -25 -44 -35 -55 -21 -24 -105 -234 -115 -288 -10 -51 -43 -98
-88 -122 -34 -18 -39 -19 -64 -5 -27 15 -29 21 -40 130 -17 159 -19 285 -11
650 6 269 5 324 -9 375 -18 72 -13 362 11 590 8 77 17 205 20 285 6 181 17
310 25 310 4 0 25 -18 46 -40 46 -47 62 -50 69 -13 11 58 18 740 8 759 -10 19
-3 130 18 269 6 39 10 81 10 95 0 14 -1 111 -3 217 -2 223 -4 229 -69 194 -44
-24 -108 -86 -108 -105 0 -7 -15 -43 -34 -81 -25 -53 -53 -90 -115 -150 -45
-44 -96 -100 -113 -125 -17 -25 -41 -56 -54 -70 -12 -14 -37 -54 -55 -90 -18
-36 -48 -82 -66 -102 -18 -21 -43 -54 -57 -75 -32 -49 -88 -107 -159 -163 -32
-25 -76 -70 -99 -100 -23 -30 -62 -73 -87 -95 -24 -22 -78 -85 -118 -140 -85
-116 -214 -238 -340 -323 -79 -54 -183 -149 -183 -169 -1 -15 -70 -85 -119
-122 -27 -20 -73 -55 -103 -78 -132 -105 -201 -151 -234 -158 -29 -5 -44 -18
-82 -73 -26 -36 -58 -76 -72 -88 -106 -94 -173 -143 -219 -163 -30 -13 -83
-45 -118 -71 -86 -67 -167 -111 -303 -165 -63 -25 -124 -51 -135 -57 -11 -7
-37 -20 -58 -30 -42 -21 -41 -39 1 -36 30 2 52 -8 52 -22 0 -31 -98 -85 -136
-76 -30 8 -30 23 -2 53 12 13 19 26 15 29 -9 10 -114 -80 -157 -135 -38 -48
-121 -99 -191 -116 -14 -3 -64 -35 -111 -70 -50 -37 -165 -103 -279 -160 -107
-53 -212 -110 -234 -126 -22 -15 -74 -40 -115 -55 -41 -15 -111 -45 -155 -67
-44 -22 -100 -46 -125 -53 -70 -20 -148 -51 -183 -73 -17 -12 -52 -31 -77 -43
-72 -35 -200 -38 -200 -4 0 7 25 41 55 75 45 51 59 76 77 137 22 73 24 76 94
130 117 89 166 154 179 236 5 35 9 39 50 49 52 13 71 33 120 119 20 35 58 93
83 128 46 62 97 132 138 188 11 16 27 48 36 71 24 63 86 151 158 224 54 54 73
83 109 165 49 112 141 274 182 319 31 35 109 158 109 172 0 6 33 57 74 115 40
57 88 133 106 168 18 36 43 79 55 95 12 17 52 92 89 168 59 122 91 175 171
286 11 16 29 41 40 57 10 16 34 47 53 69 18 22 56 87 83 144 56 116 86 161
137 207 20 18 51 64 71 103 105 208 166 304 248 387 46 46 93 105 106 131 21
43 79 143 142 243 12 19 37 61 55 93 23 42 47 67 88 95 54 36 65 48 124 143
58 93 116 165 159 196 112 83 134 108 164 189 32 84 43 97 170 197 44 35 93
82 108 106 20 28 47 51 86 71 45 22 70 45 113 102 84 110 106 162 73 174 -8 3
-86 -17 -173 -45 -87 -28 -185 -58 -218 -66 -32 -9 -106 -35 -164 -59 -193
-82 -234 -95 -330 -110 -122 -18 -172 -38 -295 -116 -116 -73 -337 -188 -445
-231 -41 -17 -97 -46 -125 -64 -27 -19 -84 -48 -124 -65 -41 -17 -82 -37 -90
-44 -9 -8 -68 -40 -131 -71 -63 -32 -127 -68 -142 -80 -15 -13 -70 -37 -121
-54 -52 -18 -102 -39 -113 -49 -10 -10 -77 -51 -149 -91 -71 -40 -146 -86
-165 -101 -19 -15 -76 -46 -126 -69 -65 -30 -95 -51 -108 -72 -25 -42 -140
-118 -181 -119 -11 0 -29 -6 -40 -14 -38 -26 -90 -53 -129 -66 -22 -7 -60 -26
-85 -41 -25 -16 -64 -38 -86 -49 -46 -23 -83 -49 -156 -111 -71 -59 -238 -169
-258 -169 -28 0 -109 -54 -173 -116 -65 -62 -123 -105 -193 -143 -22 -12 -62
-40 -90 -62 -27 -22 -77 -54 -109 -72 -63 -33 -136 -97 -155 -135 -7 -12 -35
-34 -64 -48 -69 -35 -157 -95 -234 -160 -34 -29 -76 -60 -93 -69 -17 -9 -66
-45 -110 -80 -44 -36 -83 -65 -86 -65 -11 0 -140 -97 -221 -166 -46 -39 -110
-86 -143 -103 -33 -18 -83 -53 -112 -79 -57 -51 -139 -115 -228 -175 -30 -20
-78 -56 -107 -80 -28 -23 -73 -58 -99 -77 -26 -19 -75 -60 -109 -90 -77 -68
-172 -135 -216 -154 -52 -22 -165 -112 -257 -204 -66 -66 -91 -85 -128 -94
-31 -9 -49 -20 -54 -34 -5 -12 -28 -36 -52 -52 -111 -79 -271 -183 -314 -205
-27 -14 -68 -46 -92 -71 -37 -39 -49 -46 -82 -46 -72 0 -150 -51 -150 -99 -1
-14 -11 -38 -23 -52 -22 -27 -158 -119 -174 -119 -20 0 -236 -170 -259 -203
-13 -20 -28 -37 -32 -37 -5 0 -31 -20 -60 -44 -28 -24 -95 -67 -149 -96 -77
-41 -112 -68 -161 -121 -52 -57 -73 -72 -115 -84 -36 -11 -73 -34 -122 -76
-44 -38 -108 -79 -173 -111 -75 -37 -111 -61 -130 -87 -66 -88 -121 -129 -278
-206 -107 -52 -175 -93 -221 -132 -39 -33 -111 -78 -175 -110 -164 -81 -297
-167 -398 -258 -19 -17 -87 -55 -150 -85 -221 -105 -353 -179 -387 -219 -22
-26 -55 -48 -100 -67 -38 -15 -81 -37 -98 -49 -57 -41 -163 -95 -231 -119 -38
-13 -145 -62 -239 -109 -93 -47 -186 -90 -205 -96 -100 -29 -159 -55 -195 -83
-24 -20 -79 -46 -140 -66 -55 -18 -129 -48 -165 -66 -36 -18 -99 -43 -140 -56
-111 -32 -163 -52 -181 -67 -8 -7 -18 -13 -22 -13 -3 0 -28 -13 -54 -28 -26
-16 -63 -32 -82 -35 -33 -7 -138 -65 -176 -97 -11 -10 -45 -25 -75 -35 -30
-10 -76 -28 -102 -41 -33 -17 -65 -24 -105 -24 -34 0 -90 -11 -135 -25 -42
-13 -107 -29 -144 -35 -82 -13 -199 -61 -239 -99 -32 -30 -101 -54 -217 -76
-116 -22 -163 -33 -235 -54 -38 -10 -102 -24 -143 -30 -41 -7 -90 -21 -109
-32 -19 -11 -74 -27 -123 -35 -48 -8 -107 -21 -130 -29 -63 -23 -190 -60 -293
-85 -49 -12 -128 -35 -175 -50 -215 -69 -373 -100 -517 -100 -91 0 -179 -11
-418 -55 -105 -19 -324 -43 -403 -44 -41 0 -78 -8 -109 -22 -33 -15 -80 -24
-162 -30 -64 -4 -129 -11 -146 -14 -68 -12 -508 -45 -615 -45 -63 0 -130 -4
-148 -9 -18 -6 -87 -11 -152 -12 -122 -1 -232 -18 -285 -42 -75 -35 -87 -42
-96 -59 -20 -37 -2 -54 80 -76 43 -12 89 -22 102 -22 13 0 60 -7 104 -15 162
-30 322 -57 390 -65 39 -5 97 -14 130 -20 33 -6 87 -15 119 -21 33 -5 63 -12
67 -15 7 -4 53 -8 404 -34 72 -5 204 -17 295 -25 91 -9 228 -20 305 -25 203
-15 1221 -15 1465 -1 283 17 279 16 335 29 47 10 119 14 490 28 88 3 248 13
355 21 107 9 269 18 360 22 99 4 173 11 186 18 51 30 119 45 260 58 83 8 170
22 195 30 24 9 85 22 134 30 171 27 220 36 295 55 87 22 164 36 305 55 131 18
398 89 463 124 11 6 50 15 88 21 38 6 96 24 128 41 33 16 74 29 92 29 28 0 38
-6 59 -40 14 -22 32 -40 40 -40 20 0 37 -37 29 -63 -15 -50 -63 -74 -92 -45
-16 16 -38 -5 -69 -66 -36 -71 -144 -174 -191 -181 -75 -12 -117 -28 -173 -66
-32 -21 -62 -39 -67 -39 -6 0 -32 -21 -58 -46 -27 -25 -67 -55 -89 -66 -22
-11 -62 -37 -90 -57 -115 -85 -299 -187 -360 -201 -45 -10 -71 -21 -180 -79
-53 -28 -350 -151 -364 -151 -6 0 -42 -15 -79 -34 -37 -18 -93 -41 -126 -50
-80 -23 -154 -58 -205 -94 -24 -18 -82 -43 -130 -57 -47 -14 -126 -42 -176
-63 -60 -24 -113 -39 -160 -43 -38 -3 -131 -22 -206 -42 -75 -20 -174 -41
-220 -46 -90 -11 -266 -40 -444 -73 -60 -11 -184 -25 -275 -30 -160 -10 -166
-11 -202 -40 -21 -16 -42 -27 -48 -23 -6 4 -25 2 -43 -4 -46 -14 -278 -43
-377 -46 -49 -1 -115 -11 -155 -23 -49 -14 -113 -22 -214 -27 -80 -3 -148 -8
-153 -11 -5 -3 -424 -5 -931 -4 -507 1 -949 1 -982 0 -33 0 -184 4 -335 10
-151 5 -345 12 -430 15 -141 4 -162 7 -220 32 -53 22 -79 27 -138 25 -49 -1
-104 7 -165 23 -51 13 -123 26 -162 30 -38 4 -98 14 -133 21 -35 8 -67 12 -73
9 -5 -4 -43 1 -85 11 -42 9 -115 17 -162 18 -48 1 -121 10 -162 19 -41 9 -118
18 -170 21 -52 3 -133 10 -180 16 -47 5 -132 10 -190 10 -94 0 -187 12 -318
41 -23 5 -64 9 -91 9 -27 0 -83 11 -125 25 -56 18 -98 25 -158 25 -45 0 -121
9 -168 19 -122 28 -186 40 -259 46 -59 6 -107 17 -321 76 -41 11 -104 24 -139
29 -41 5 -75 17 -95 31 -22 17 -43 23 -71 22 -22 -1 -60 -3 -83 -4 -24 -1 -74
8 -110 19 -37 12 -119 29 -182 38 -63 9 -176 29 -250 46 -74 16 -214 40 -310
53 -169 23 -262 46 -312 79 -30 19 -166 57 -243 67 -33 5 -93 13 -133 18 -40
5 -112 21 -160 35 -48 14 -114 32 -147 40 -33 8 -91 24 -130 36 -38 11 -108
27 -155 35 -86 15 -260 58 -278 69 -6 3 -43 15 -84 25 -215 57 -255 68 -278
81 -14 8 -32 15 -41 16 -61 5 -164 32 -216 57 -47 22 -89 32 -180 43 -149 17
-168 21 -223 43 -52 21 -141 43 -340 81 -30 5 -88 17 -129 24 -49 10 -80 12
-92 5 -29 -15 -71 -10 -126 15 -28 14 -77 28 -109 31 -31 4 -93 21 -138 37
-117 42 -233 77 -291 87 -64 11 -167 37 -273 69 -63 19 -96 23 -137 19 -59 -6
-110 9 -180 53 -33 21 -50 24 -112 22 -42 -1 -90 4 -115 12 -136 46 -206 58
-374 65 -94 4 -175 10 -181 14 -10 7 -92 30 -168 48 -63 16 -85 34 -85 74 0
70 41 129 115 167 22 12 56 39 76 62 59 66 218 186 335 251 22 12 67 30 99 40
72 20 167 68 217 106 20 16 56 36 79 44 27 10 69 41 114 84 52 51 85 74 130
90 33 13 103 44 155 70 52 27 106 52 119 56 13 4 54 26 90 49 36 24 107 64
156 91 50 26 113 62 140 80 28 17 88 51 135 74 47 24 105 56 130 71 25 16 65
36 90 46 25 9 59 27 75 39 17 12 74 48 128 79 54 31 110 65 125 75 15 10 65
40 111 67 46 27 104 68 128 92 24 23 65 53 92 66 55 29 122 100 158 171 30 59
37 65 81 65 58 0 95 24 142 90 104 146 133 180 158 192 17 8 40 37 62 80 25
49 46 75 76 94 45 29 96 100 150 209 49 98 73 135 117 180 27 28 37 47 37 70
0 49 36 156 73 218 42 69 72 175 63 223 -9 47 -34 70 -86 78 -38 6 -50 3 -109
-34 -37 -22 -96 -70 -131 -106 -52 -53 -83 -75 -166 -114 -115 -55 -175 -94
-219 -139 -19 -20 -52 -38 -93 -51 -34 -11 -77 -30 -95 -44 -68 -51 -307 -152
-487 -205 -41 -13 -106 -39 -145 -58 -88 -45 -160 -65 -250 -69 -121 -4 -201
-28 -335 -99 -28 -15 -62 -24 -91 -25 -26 0 -62 -6 -80 -14 -19 -7 -67 -16
-108 -20 -70 -6 -174 -41 -211 -72 -8 -7 -46 -16 -85 -22 -87 -12 -87 -12
-274 -11 -164 0 -245 -7 -486 -46 -220 -36 -333 -45 -390 -33 -34 7 -63 7 -99
-1 -28 -6 -152 -15 -276 -21 -124 -6 -230 -13 -236 -15 -6 -2 -85 3 -175 10
-150 12 -372 27 -619 41 -101 5 -199 18 -265 34 -22 5 -59 10 -82 10 -23 0
-53 4 -66 9 -14 6 -51 12 -84 15 -32 3 -73 10 -91 15 -18 6 -75 11 -125 12
-51 1 -119 5 -152 10 -33 4 -85 11 -115 14 -157 17 -206 24 -325 44 -71 12
-157 26 -190 33 -33 6 -67 10 -75 10 -16 0 -249 31 -360 47 -36 6 -110 15
-165 21 -55 6 -156 24 -225 39 -69 16 -170 36 -225 46 -55 9 -149 25 -210 35
-60 11 -144 24 -185 29 -42 6 -102 22 -135 38 -53 24 -77 28 -210 34 -218 11
-476 39 -644 69 -30 6 -75 10 -100 10 -44 0 -110 20 -179 55 -35 18 -83 17
-177 -5 -27 -6 -57 -11 -65 -11 -42 0 -209 22 -296 40 -183 37 -279 51 -345
51 -45 0 -92 9 -145 26 -59 20 -110 28 -200 34 -66 3 -125 9 -130 12 -5 4 -88
11 -184 17 -216 13 -436 37 -555 58 -49 9 -144 18 -210 19 -66 1 -142 7 -170
14 -124 27 -1324 43 -1515 20 -114 -14 -294 -17 -353 -6 -36 7 -63 5 -105 -7
-203 -56 -273 -62 -339 -28 -75 37 -68 101 19 173 27 23 61 60 76 83 15 22 46
59 70 80 24 22 68 66 99 97 43 45 63 58 96 63 55 9 72 19 133 74 28 26 79 62
115 80 41 22 93 64 144 115 62 63 91 85 132 99 32 10 65 31 85 53 63 69 81 82
167 124 97 47 88 42 164 93 31 20 61 46 67 57 6 11 33 31 61 45 27 14 66 40
87 59 58 51 91 71 172 105 41 17 95 47 120 66 74 57 120 86 161 100 22 8 70
32 108 55 37 22 81 45 97 49 106 33 274 106 318 139 28 21 65 46 81 55 17 8
53 39 80 69 53 58 101 82 187 93 26 3 62 16 80 28 62 42 243 125 383 176 112
41 146 57 170 84 43 48 85 67 149 67 62 0 123 23 178 67 29 24 50 31 101 36
35 3 87 15 116 26 28 12 75 30 104 42 28 11 66 27 82 34 17 8 67 23 112 35
100 25 221 69 287 104 38 20 63 26 110 26 43 0 88 9 146 30 47 16 96 30 110
30 14 0 88 20 165 44 77 24 199 56 270 71 72 14 159 35 195 45 36 11 106 25
155 31 50 6 110 17 135 24 25 8 74 19 110 26 36 6 86 18 112 25 26 8 53 14 61
14 8 0 41 14 73 31 70 36 138 47 537 89 104 11 192 22 197 25 4 2 79 14 166
26 201 27 193 26 359 38 178 13 287 27 350 45 28 8 77 14 110 14 35 -1 73 5
90 14 47 23 362 66 610 83 28 2 91 8 140 14 50 5 133 11 185 11 52 1 138 6
190 10 111 10 673 22 1215 24 l380 2 51 35 c28 19 65 41 83 48 31 13 31 14 11
28 -28 20 -178 73 -207 73 -13 0 -49 13 -81 29 -76 38 -120 50 -228 61 -50 5
-110 18 -135 28 -24 11 -91 25 -149 32 -58 7 -129 21 -159 31 -62 22 -191 43
-366 59 -66 7 -142 15 -170 20 -27 4 -73 6 -102 3 -35 -4 -67 0 -100 12 -34
12 -104 19 -233 25 -102 5 -230 14 -285 19 -338 33 -901 38 -1160 10 -55 -6
-158 -12 -230 -14 -71 -1 -233 -10 -360 -20 -219 -16 -358 -14 -394 4 -30 15
-317 -4 -461 -31 -36 -6 -130 -12 -210 -13 -139 -1 -273 -16 -308 -34 -47 -24
-168 -43 -286 -44 -116 -2 -129 0 -142 17 -24 34 -16 53 55 124 73 72 163 122
221 122 31 0 150 45 240 90 31 16 78 31 105 35 61 8 103 20 175 50 86 35 153
55 183 55 16 0 38 5 49 11 12 6 48 15 82 20 34 4 104 17 156 29 52 12 115 25
140 31 25 5 56 17 70 27 30 22 148 45 250 47 164 5 279 17 370 41 164 41 374
70 695 94 55 4 123 15 150 24 32 10 110 20 212 25 89 5 166 12 171 15 5 3 54
10 108 16 55 6 126 14 159 20 33 5 125 14 205 20 80 6 231 21 335 32 166 18
223 19 450 13 316 -9 465 -8 547 4 35 4 127 6 205 3 96 -3 147 -1 156 6 7 6
42 14 78 17 44 5 69 12 79 25 8 10 25 23 36 29 21 10 218 19 569 25 301 5 720
18 726 22 6 3 229 8 941 19 147 2 272 6 277 10 5 3 8 14 6 25 -5 24 27 44 55
35 25 -8 26 -24 3 -32 -33 -12 -45 -25 -31 -34 21 -14 62 -10 87 7 16 12 35
15 69 11 26 -3 148 -2 272 3 124 5 313 12 420 15 107 3 269 13 360 22 91 8
217 17 280 20 326 13 416 19 428 26 7 5 82 11 165 13 84 3 179 9 212 15 88 16
360 31 600 34 211 2 411 15 540 34 39 5 93 10 121 10 79 -1 164 12 179 27 8 8
29 17 47 20 18 4 42 12 53 19 43 26 218 47 404 47 90 0 170 2 177 5 7 3 22 20
33 38 11 19 30 41 44 49 31 21 225 60 397 81 74 8 176 20 225 26 50 6 126 17
170 24 44 8 113 19 153 25 41 6 91 19 112 30 21 11 58 22 82 26 46 7 111 36
143 63 62 54 222 110 353 124 29 4 68 15 85 25 18 11 43 23 57 27 14 4 52 21
85 37 43 21 83 32 143 37 107 11 138 33 174 124 2 5 41 15 87 23 47 8 101 25
125 39 57 33 201 85 236 85 72 0 256 102 300 165 47 68 74 85 136 85 29 0 77
5 106 11 45 10 61 20 104 67 51 55 53 56 122 63 68 7 191 54 206 78 4 5 30 21
59 36 28 14 84 44 122 66 39 22 110 51 159 65 106 30 118 38 160 101 18 27 46
55 66 65 19 9 145 71 280 137 135 66 270 130 300 144 30 13 84 49 120 79 67
57 130 93 223 128 29 11 82 39 119 62 36 24 79 51 94 61 125 76 155 95 182
118 17 15 48 30 69 33 21 4 65 20 98 36 33 16 85 40 115 54 30 14 80 39 110
56 30 17 100 56 156 86 56 31 125 76 155 100 72 59 126 84 181 84 33 0 67 11
126 40 45 23 104 48 132 56 38 11 66 30 108 72 31 31 62 65 67 75 6 9 34 23
63 31 29 7 63 22 75 33 12 12 33 24 47 28 14 4 48 22 75 39 28 18 81 45 118
61 37 16 92 50 122 76 45 39 72 53 144 75 65 19 103 37 137 66 61 50 95 68
131 68 40 0 149 54 168 83 8 14 44 37 78 51 34 15 87 40 117 55 30 16 86 39
124 50 38 12 84 30 101 41 18 11 39 20 47 20 8 0 37 16 64 35 27 19 58 35 69
35 49 1 163 32 216 60 38 19 73 30 101 30 75 1 131 20 205 71 39 27 76 49 81
49 6 0 23 10 39 23 35 29 104 57 141 57 15 0 45 9 67 19 128 62 221 91 435
137 151 31 214 50 259 76 21 12 63 22 105 25 39 3 83 12 98 19 15 8 45 14 67
14 51 0 127 17 166 38 130 67 124 65 350 98 130 18 209 26 535 54 232 19 289
26 420 52 91 17 120 29 136 53 13 20 13 27 1 57 -8 18 -23 41 -35 51 -32 29
-256 76 -497 104 -204 24 -252 26 -670 26 -694 1 -1488 -10 -1615 -22 -139
-14 -434 -58 -474 -71 -16 -6 -50 -10 -76 -10 -38 0 -51 -5 -75 -30 -16 -16
-38 -30 -50 -30 -12 0 -35 -4 -51 -9 -16 -5 -96 -21 -179 -36 -82 -14 -206
-39 -275 -55 -69 -16 -154 -31 -190 -34 -35 -4 -101 -17 -145 -31 -44 -13
-108 -26 -140 -29 -89 -6 -170 -23 -233 -46 -32 -12 -106 -35 -167 -50 -60
-16 -162 -43 -225 -60 -63 -18 -155 -40 -204 -51 -49 -10 -122 -30 -163 -44
-40 -14 -83 -25 -94 -25 -11 0 -53 -11 -92 -24 -40 -14 -130 -43 -202 -66 -71
-22 -171 -61 -221 -85 -154 -74 -235 -99 -290 -89 -28 5 -50 -2 -122 -39 -74
-38 -131 -55 -377 -116 -322 -79 -502 -134 -549 -169 -30 -23 -108 -62 -122
-62 -4 0 -28 -22 -54 -49 -56 -59 -103 -85 -136 -77 -14 4 -42 24 -64 45 -22
21 -56 46 -75 55 -42 20 -43 22 -55 87 -8 41 -7 65 6 111 18 61 26 68 55 42
10 -9 24 -14 32 -11 18 7 38 76 48 162 4 39 12 88 18 110 87 328 121 625 120
1040 0 143 -4 285 -9 315 -5 30 -15 102 -23 160 -18 123 -32 173 -52 190 -8 7
-15 17 -15 24 0 6 -11 40 -25 76 -26 65 -43 83 -123 131 -42 24 -107 125 -131
203 -53 168 -127 302 -203 368 -34 29 -76 80 -104 126 -26 42 -57 89 -69 104
-13 15 -33 61 -45 102 -30 101 -52 121 -130 118 -52 -2 -63 1 -80 20 -63 73
-90 98 -105 98 -24 0 -13 -43 40 -160 28 -63 45 -115 49 -155 3 -33 21 -112
40 -176 35 -119 47 -201 66 -444 10 -133 7 -194 -16 -289 -4 -15 -1 -59 6 -96
10 -55 10 -88 0 -176 -7 -60 -16 -140 -20 -179 -7 -74 -11 -93 -67 -350 -44
-205 -37 -186 -94 -260 -27 -35 -59 -90 -70 -122 -12 -32 -29 -69 -39 -83 -21
-31 -68 -121 -114 -220 -19 -42 -49 -89 -67 -105 -81 -75 -100 -100 -143 -187
-49 -101 -100 -165 -259 -326 -62 -63 -125 -116 -162 -137 -55 -31 -65 -42
-125 -142 -81 -136 -120 -179 -174 -195 -28 -8 -59 -31 -102 -74 -69 -71 -175
-158 -219 -181 -16 -9 -76 -60 -133 -114 -56 -55 -106 -99 -111 -99 -5 0 -33
-19 -62 -42 -30 -23 -110 -70 -179 -104 -69 -35 -156 -85 -195 -113 -38 -28
-90 -63 -114 -78 -24 -16 -72 -49 -108 -76 -77 -57 -125 -81 -258 -132 -55
-21 -145 -58 -200 -82 -110 -49 -207 -83 -236 -83 -10 0 -42 -10 -71 -21 -29
-12 -77 -25 -107 -30 -29 -4 -63 -16 -75 -27 -11 -11 -37 -25 -57 -31 -20 -6
-53 -20 -74 -31 -53 -27 -155 -28 -178 -2 -20 21 -21 34 -7 76 5 17 12 44 15
60 4 17 32 54 68 91 34 34 89 92 121 130 34 38 75 74 95 82 89 37 99 45 116
86 16 41 69 115 91 129 14 9 98 116 135 173 15 22 53 69 84 105 32 36 82 101
112 145 29 44 68 98 86 121 79 101 114 151 127 184 8 19 37 76 66 125 28 50
63 113 77 141 23 46 47 71 141 147 38 31 53 75 36 107 -12 23 1 79 24 103 34
34 99 132 111 168 8 22 21 52 29 67 22 39 66 149 66 165 0 7 23 57 51 111 37
72 55 119 65 177 14 81 31 121 83 199 17 25 31 53 31 62 0 26 39 134 77 213
27 57 33 81 33 136 0 42 -5 70 -13 77 -19 16 -81 -1 -118 -32 -17 -14 -37 -26
-44 -26 -8 0 -42 -27 -77 -60 -34 -33 -65 -60 -68 -60 -3 0 -30 -32 -60 -71
-30 -39 -98 -107 -150 -151 -91 -77 -136 -103 -280 -162 -36 -15 -99 -54 -140
-86 -41 -33 -83 -63 -92 -66 -10 -3 -18 -9 -18 -14 0 -5 -19 -19 -42 -31 -24
-12 -61 -38 -84 -59 -22 -20 -62 -45 -90 -55 -27 -9 -96 -39 -154 -66 -126
-58 -231 -99 -253 -99 -8 0 -55 -14 -104 -31 -252 -88 -407 -139 -422 -139 -9
0 -33 -9 -54 -20 -21 -11 -61 -27 -90 -34 -29 -8 -65 -19 -80 -25 -16 -6 -43
-11 -61 -11 -23 0 -41 -9 -61 -30 -16 -17 -39 -30 -52 -30 -23 0 -24 3 -22 53
3 55 -6 80 -40 111 -25 23 -27 53 -6 103 8 19 15 41 15 49 0 27 42 125 74 172
57 85 98 277 131 607 3 33 11 78 16 99 6 22 10 108 10 192 -1 144 -7 211 -31
369 -5 39 -12 131 -14 205 -4 145 -19 205 -61 250 -27 30 -46 66 -78 151 -14
35 -38 91 -55 124 -17 33 -42 89 -55 125 -57 149 -75 186 -207 420 -40 70
-127 194 -144 204 -23 14 -102 130 -150 222 -45 87 -66 106 -133 128 -60 20
-99 59 -142 144 -37 73 -88 121 -176 167 -38 20 -97 63 -130 94 -46 44 -76 63
-128 82 -55 19 -79 35 -123 81 -46 49 -54 62 -47 80 4 13 7 44 6 70 -3 42 0
49 28 69 64 45 105 50 369 43 135 -3 248 -8 252 -10 4 -3 40 -7 80 -9 142 -9
203 -17 228 -30 14 -7 57 -16 95 -20 39 -4 88 -13 110 -20 75 -25 150 -35 230
-33 69 1 87 -2 130 -24 54 -28 295 -91 415 -109 109 -16 376 -89 470 -128 25
-10 65 -22 89 -26 24 -4 65 -17 90 -30 63 -31 148 -70 195 -89 22 -9 63 -34
90 -55 47 -35 86 -53 230 -106 31 -11 74 -40 112 -76 65 -60 118 -92 189 -113
39 -12 159 -101 228 -170 18 -18 88 -94 157 -169 103 -112 137 -142 189 -169
73 -37 101 -63 185 -166 l59 -72 71 0 c79 0 83 2 113 45 30 44 38 104 18 151
-10 24 -20 91 -25 174 -5 74 -16 157 -24 183 -18 56 -26 142 -30 332 -2 77 -9
153 -15 168 -6 16 -11 55 -11 88 0 43 -9 82 -34 147 -19 48 -37 105 -41 127
-4 21 -13 51 -20 65 -7 14 -20 59 -29 100 -19 93 -76 262 -110 326 -43 82 -86
190 -96 244 -14 76 -5 103 43 128 83 42 104 44 273 26 88 -9 178 -13 202 -10
34 5 68 -3 163 -34 104 -35 137 -41 257 -49 126 -8 148 -13 267 -55 72 -25
140 -46 151 -46 12 0 50 -9 85 -21 75 -24 282 -69 317 -69 13 0 71 -20 127
-45 57 -25 128 -50 157 -56 49 -11 152 -48 190 -69 53 -29 278 -122 363 -150
55 -17 129 -45 164 -62 36 -16 81 -31 100 -33 20 -1 39 -3 42 -4 3 -1 27 -28
52 -61 45 -57 106 -100 145 -100 10 0 65 -23 122 -51 58 -29 125 -58 150 -65
25 -7 88 -25 140 -39 175 -50 305 -98 341 -126 20 -15 61 -37 92 -49 30 -11
85 -44 121 -71 51 -40 76 -52 118 -58 47 -7 147 -52 313 -139 68 -36 192 -82
222 -82 44 0 131 -26 198 -59 38 -19 75 -30 97 -29 36 1 128 -43 128 -62 0
-23 88 -68 152 -78 36 -6 104 -27 150 -48 86 -38 132 -52 278 -84 47 -10 147
-35 222 -54 76 -20 153 -36 172 -36 19 0 56 -5 83 -10 182 -38 436 -84 533
-96 191 -24 424 -45 439 -39 7 3 79 -2 159 -10 79 -9 161 -14 181 -10 20 3 76
-1 124 -10 49 -8 92 -13 96 -11 4 3 50 1 102 -5 230 -24 531 -29 618 -10 28 6
100 11 159 11 59 0 141 6 182 14 162 31 311 45 590 56 243 10 306 14 535 40
157 17 215 30 395 87 25 8 86 20 135 28 50 8 119 23 154 34 35 12 71 21 81 21
23 0 213 95 229 114 13 15 65 42 131 67 19 7 58 28 86 47 29 18 73 40 99 48
27 8 63 25 81 39 18 14 36 25 41 25 5 0 38 21 74 48 36 26 90 60 121 75 75 38
126 84 168 151 29 47 42 58 78 68 61 17 166 123 254 255 16 25 15 69 -1 86 -4
4 -86 10 -182 12 -182 5 -238 9 -329 26 -70 13 -302 90 -378 125 -87 41 -235
130 -257 155 -11 12 -37 32 -58 46 -21 13 -46 37 -55 52 -10 16 -45 50 -77 74
-46 35 -73 66 -115 136 -110 182 -154 243 -192 269 -49 32 -99 101 -142 194
-18 40 -41 80 -50 87 -22 19 -102 141 -111 172 -8 25 -159 307 -234 437 -23
40 -44 87 -48 105 -8 45 -17 59 -79 128 -40 45 -59 77 -70 118 -9 31 -24 70
-34 86 -10 17 -26 55 -34 86 -9 31 -26 65 -37 75 -11 10 -29 39 -40 64 -11 26
-36 61 -55 80 -39 37 -73 98 -110 200 -13 38 -49 119 -79 179 -30 60 -52 116
-49 124 3 10 -9 21 -39 36 -25 12 -66 44 -91 71 -44 47 -106 158 -106 189 0
19 -83 119 -123 148 -33 24 -110 118 -171 209 -24 35 -53 62 -90 83 -31 17
-78 52 -105 78 -142 138 -204 183 -252 183 -11 0 -86 32 -166 70 -145 70 -254
110 -297 110 -46 0 -59 -21 -57 -96 2 -67 11 -93 46 -128 15 -15 18 -15 42 4
32 25 45 25 65 3 30 -35 108 -230 123 -306 17 -89 41 -155 125 -342 10 -22 31
-74 46 -115 16 -41 43 -95 61 -120 17 -25 37 -68 44 -95 14 -57 41 -116 75
-160 12 -16 26 -43 30 -60 4 -16 15 -48 25 -70 11 -24 19 -64 19 -100 0 -104
41 -260 73 -273 4 -2 7 -11 7 -19 0 -8 13 -30 29 -48 20 -23 34 -56 45 -106 9
-39 27 -97 40 -128 13 -31 33 -101 45 -156 12 -55 26 -118 32 -140 6 -22 15
-67 20 -100 13 -91 67 -315 105 -435 13 -41 28 -107 33 -147 7 -56 22 -96 71
-193 51 -102 69 -152 106 -299 85 -330 90 -345 137 -398 70 -80 77 -99 77
-222 0 -128 -8 -144 -81 -156 -24 -4 -64 -18 -89 -30 -44 -23 -50 -23 -300
-18 -226 4 -266 7 -351 28 -53 13 -128 27 -165 30 -198 17 -451 62 -579 102
-44 14 -102 32 -130 39 -85 22 -221 71 -277 100 -29 15 -84 33 -123 41 -38 8
-86 23 -106 33 -20 11 -83 34 -140 53 -119 39 -357 133 -374 147 -6 5 -61 32
-122 59 -61 27 -135 65 -165 84 -34 21 -91 44 -155 61 -108 28 -244 90 -304
137 -20 16 -40 29 -44 29 -4 0 -25 13 -48 29 -23 17 -70 45 -103 63 -34 18
-90 49 -125 69 -57 32 -102 45 -219 64 -19 3 -64 24 -100 46 -36 23 -94 52
-130 64 -36 12 -104 47 -152 77 -48 31 -108 61 -135 67 -34 9 -56 23 -80 50
-24 28 -59 50 -130 81 -54 24 -140 65 -192 92 -52 26 -100 48 -107 48 -7 0
-61 20 -118 45 -58 25 -111 45 -118 45 -30 0 -122 53 -182 104 -36 31 -78 58
-93 62 -16 4 -50 24 -78 44 -27 21 -69 47 -93 59 -65 33 -397 154 -592 216
-64 20 -300 80 -379 96 -24 5 -80 25 -125 44 -90 38 -144 51 -257 60 -42 3
-101 13 -130 23 -50 16 -54 19 -53 47 1 17 -3 45 -8 63 -8 27 -7 37 6 50 10 9
31 42 49 72 28 47 38 56 77 66 25 7 74 21 110 30 93 26 148 52 161 76 16 29
90 108 102 108 5 0 80 31 166 69 86 37 164 71 174 74 10 4 24 22 32 41 17 40
72 76 151 99 28 8 69 26 90 40 22 13 93 50 158 83 104 51 133 72 222 154 56
53 128 110 160 128 72 40 148 93 189 133 17 16 51 36 76 44 29 10 77 44 135
95 49 44 102 82 118 86 39 8 94 42 106 64 6 10 10 34 10 52 0 37 15 58 41 58
9 0 40 16 69 35 54 36 273 149 313 160 12 4 56 27 98 51 58 34 84 57 114 99
35 52 40 55 79 55 31 0 53 8 84 31 23 17 42 34 42 38 0 23 90 106 136 127 30
13 64 38 81 59 30 39 126 112 208 160 28 16 75 50 106 75 31 26 83 62 115 81
68 38 199 133 211 152 17 28 68 57 125 73 36 10 77 31 103 53 25 20 93 56 151
81 71 29 123 57 154 85 47 42 217 142 325 191 32 15 95 49 138 75 43 27 103
55 132 64 30 8 102 40 162 70 60 30 133 63 163 74 30 11 80 29 110 40 30 11
65 20 78 21 13 0 50 14 83 32 51 26 76 32 156 37 84 6 97 9 114 30 23 29 23
36 0 142 -20 94 -29 115 -60 143 -19 18 -26 18 -56 7 -47 -16 -56 -10 -200
127 -91 86 -137 122 -189 148 -39 19 -94 57 -124 84 -30 28 -77 62 -106 76
-83 42 -165 96 -220 145 -28 26 -88 65 -134 88 -45 23 -111 61 -146 85 -35 24
-88 55 -118 69 -31 15 -58 33 -61 41 -8 21 -102 79 -210 130 -50 24 -116 59
-144 79 -29 19 -90 50 -135 67 -96 37 -118 52 -213 140 -39 36 -100 80 -135
99 -36 19 -87 49 -115 68 -27 18 -54 33 -58 33 -31 0 -65 45 -96 125 -29 73
-32 88 -20 99 22 20 103 35 249 46 213 17 290 37 290 75 0 28 52 50 140 60 36
4 71 17 101 36 26 16 89 44 140 62 87 30 96 35 136 87 23 30 42 58 43 62 1 24
-82 94 -145 123 -38 17 -102 53 -142 78 -39 25 -100 60 -135 78 -75 37 -113
70 -139 122 -11 20 -36 50 -57 65 -50 36 -146 142 -167 184 -10 18 -33 49 -52
69 -54 56 -132 204 -160 304 -14 50 -30 98 -35 108 -19 37 -39 135 -49 237 -5
58 -12 113 -15 123 -3 10 0 99 7 197 11 163 10 184 -5 234 -16 51 -20 55 -69
75 -29 11 -65 23 -81 25 -35 6 -155 -18 -196 -39 -16 -9 -67 -22 -112 -31 -46
-8 -103 -22 -127 -30 -25 -8 -110 -20 -190 -25 -134 -9 -157 -14 -271 -54 -69
-24 -154 -49 -190 -54 -36 -6 -98 -22 -138 -36 -39 -14 -104 -30 -144 -36 -40
-7 -127 -29 -193 -50 -66 -21 -152 -45 -192 -54 -39 -9 -127 -37 -195 -61 -68
-25 -152 -52 -188 -61 -36 -8 -112 -32 -171 -53 -58 -21 -134 -44 -170 -50
-35 -7 -116 -29 -179 -50 -63 -21 -169 -53 -235 -70 -109 -28 -270 -76 -445
-132 -36 -11 -76 -28 -90 -38 -14 -9 -36 -21 -49 -25 -13 -4 -40 -22 -60 -40
-20 -17 -49 -35 -66 -39 -16 -4 -44 -18 -60 -30 -53 -41 -255 -111 -360 -126
-28 -4 -97 -29 -153 -55 -68 -31 -122 -48 -160 -52 -36 -4 -82 -19 -127 -41
-98 -49 -343 -115 -545 -146 -140 -22 -320 -65 -347 -82 -12 -8 -45 -14 -72
-14 -65 0 -94 -12 -161 -67 -72 -60 -120 -83 -183 -89 -29 -3 -69 -12 -90 -20
-20 -8 -63 -14 -94 -14 -61 0 -155 -17 -320 -57 -115 -28 -146 -30 -186 -14
-34 13 -166 14 -187 1 -13 -8 -12 -11 5 -24 18 -14 19 -17 5 -42 -8 -15 -36
-38 -63 -51 -45 -23 -51 -24 -122 -12 -59 10 -83 10 -122 0 -59 -16 -122 -24
-323 -45 -85 -8 -187 -21 -227 -27 -47 -8 -118 -9 -205 -5 -73 4 -290 9 -483
12 -424 5 -601 26 -680 80 -25 18 -66 18 -89 1 -18 -13 -18 -39 -4 -242 5 -69
36 -129 68 -133 51 -6 134 -57 189 -116 109 -117 155 -156 196 -166 22 -6 63
-19 90 -30 28 -11 58 -20 66 -20 9 0 52 -9 95 -19 93 -23 219 -28 289 -11 78
19 183 23 234 10 44 -12 155 -21 446 -39 72 -4 224 -14 339 -21 168 -11 228
-11 308 -1 54 7 103 9 108 6 13 -8 244 -27 305 -25 28 1 165 -6 305 -15 194
-13 278 -22 350 -40 52 -13 142 -27 200 -30 101 -6 153 -14 250 -37 93 -23
171 -30 367 -33 111 -2 210 -8 220 -13 10 -6 75 -10 144 -10 132 -1 217 -12
307 -39 93 -29 59 -38 -151 -38 -202 0 -217 -3 -183 -38 20 -19 298 -31 414
-17 62 8 96 8 116 0 15 -5 41 -10 57 -10 16 0 87 -12 157 -26 272 -56 322 -59
322 -18 0 19 28 18 130 -5 83 -19 240 -49 372 -70 36 -6 128 -30 205 -52 76
-23 163 -45 193 -49 30 -5 93 -16 140 -25 47 -9 108 -21 135 -25 158 -27 266
-53 355 -85 36 -12 99 -31 140 -40 41 -9 124 -35 184 -57 61 -22 134 -49 163
-59 29 -10 74 -32 99 -50 41 -28 56 -32 120 -34 68 -2 82 -7 206 -69 77 -38
176 -78 236 -95 114 -33 174 -67 243 -138 25 -27 84 -70 132 -96 74 -42 88
-54 102 -90 40 -99 -22 -166 -154 -167 -18 0 -48 -9 -66 -20 -22 -14 -71 -25
-151 -35 -179 -23 -202 -28 -290 -68 -45 -20 -86 -37 -90 -37 -5 0 -25 -9 -45
-19 -19 -11 -62 -22 -95 -26 -32 -4 -93 -22 -134 -40 -41 -18 -93 -35 -115
-39 -22 -3 -65 -14 -95 -25 -137 -49 -351 -120 -410 -136 -143 -39 -193 -56
-218 -74 -15 -10 -38 -22 -52 -26 -28 -8 -211 -102 -251 -128 -15 -10 -60 -21
-101 -26 -42 -5 -129 -27 -194 -49 -66 -22 -175 -56 -244 -76 -69 -19 -178
-55 -242 -80 -65 -25 -126 -46 -136 -46 -10 0 -63 -16 -118 -35 -54 -19 -109
-35 -121 -35 -36 0 -194 -39 -243 -59 -25 -10 -62 -24 -84 -31 -21 -7 -54 -23
-73 -36 -19 -13 -51 -26 -72 -30 -20 -3 -67 -15 -106 -26 -38 -12 -88 -23
-110 -25 -22 -3 -49 -13 -60 -23 -11 -11 -43 -24 -70 -30 -28 -5 -93 -21 -145
-34 -52 -13 -135 -26 -185 -29 -112 -6 -408 -34 -493 -46 -79 -12 -112 -32
-112 -69 1 -44 29 -69 105 -92 39 -12 90 -30 115 -41 25 -10 90 -30 145 -45
55 -14 125 -34 155 -44 30 -10 80 -21 110 -25 65 -9 140 -44 192 -91 21 -18
50 -36 65 -39 42 -10 145 -47 168 -61 11 -7 78 -17 153 -22 127 -8 133 -10
163 -38 69 -65 74 -111 22 -189 -30 -46 -48 -61 -108 -91 -39 -19 -85 -47
-101 -61 -16 -14 -65 -43 -108 -65 -63 -32 -96 -42 -160 -48 -109 -11 -126
-18 -181 -67 -41 -38 -52 -43 -94 -43 -63 0 -129 -24 -228 -82 -45 -26 -94
-53 -110 -59 -43 -17 -290 -95 -458 -145 -82 -25 -186 -58 -230 -74 -190 -69
-362 -114 -575 -150 -36 -6 -156 -40 -267 -76 -112 -35 -211 -64 -220 -64 -10
0 -56 -13 -103 -28 -47 -16 -119 -37 -160 -47 -41 -9 -105 -26 -142 -36 -37
-11 -118 -30 -180 -43 -62 -13 -144 -38 -183 -56 -38 -17 -97 -36 -130 -41
-33 -6 -73 -18 -90 -27 -68 -40 -118 -51 -210 -49 -80 2 -94 0 -119 -20 -16
-13 -35 -23 -43 -23 -8 0 -38 -11 -67 -25 -29 -14 -68 -27 -87 -30 -19 -4 -56
-12 -84 -20 -123 -35 -238 -57 -337 -65 -86 -7 -121 -15 -180 -41 -48 -21 -99
-35 -148 -40 -42 -4 -134 -21 -205 -38 -72 -17 -152 -36 -180 -42 -27 -6 -104
-28 -170 -49 -66 -21 -149 -41 -185 -44 -111 -11 -340 -46 -465 -72 -224 -45
-595 -104 -654 -104 -34 0 -96 -11 -147 -26 -68 -20 -103 -25 -148 -21 -66 6
-160 -10 -284 -47 -52 -16 -131 -29 -210 -36 -70 -6 -163 -15 -207 -20 -44 -6
-116 -10 -160 -10 -86 0 -147 -21 -153 -52 -4 -21 80 -115 133 -150 22 -14 56
-30 75 -36 19 -5 70 -24 112 -41 43 -17 106 -35 140 -41 116 -18 151 -33 168
-68 9 -18 30 -45 48 -61 36 -33 38 -44 18 -93 -30 -72 -123 -128 -311 -188
-38 -13 -81 -31 -94 -41 -29 -23 -57 -24 -65 -4 -8 23 -77 20 -83 -3 -5 -21
-41 -37 -143 -62 -41 -10 -120 -35 -175 -55 -55 -20 -127 -41 -160 -45 -147
-21 -324 -51 -365 -61 -145 -36 -340 -94 -384 -115 -30 -14 -60 -21 -73 -18
-13 4 -53 -3 -91 -15 -37 -11 -103 -30 -147 -41 -44 -12 -100 -28 -124 -35
-24 -8 -47 -12 -52 -9 -18 11 -257 -52 -281 -73 -22 -19 -103 -29 -112 -14
-12 19 -48 12 -72 -14 -15 -17 -34 -25 -56 -25 -80 -1 -239 -21 -313 -39 -44
-10 -118 -24 -165 -31 -134 -18 -191 -30 -245 -50 -67 -26 -211 -60 -255 -60
-20 0 -80 -11 -134 -25 -54 -14 -120 -25 -145 -25 -26 0 -74 -7 -106 -16 -33
-9 -98 -19 -145 -24 -47 -4 -159 -22 -250 -39 -91 -17 -225 -40 -298 -51 -73
-11 -141 -24 -151 -29 -10 -6 -42 -13 -72 -17 -54 -7 -122 -21 -324 -68 -60
-14 -119 -26 -130 -26 -31 0 -203 -45 -264 -69 -29 -12 -81 -24 -115 -27 -33
-3 -96 -19 -139 -35 -43 -17 -115 -34 -160 -40 -45 -5 -145 -28 -222 -50 -77
-23 -194 -55 -260 -71 -83 -21 -145 -43 -201 -74 -53 -29 -93 -44 -117 -44
-34 0 -64 -10 -142 -46 -16 -8 -57 -21 -89 -29 -33 -9 -96 -33 -140 -54 -45
-21 -126 -53 -181 -71 -151 -48 -311 -104 -400 -139 -44 -18 -111 -36 -149
-42 -38 -5 -80 -15 -95 -22 -14 -8 -39 -21 -56 -30 -16 -9 -64 -26 -105 -38
-108 -31 -174 -55 -228 -83 -26 -13 -94 -36 -152 -52 -59 -16 -128 -42 -159
-61 -30 -18 -61 -33 -69 -33 -7 0 -34 -12 -59 -26 -48 -29 -83 -32 -139 -14
-33 11 -41 9 -132 -38 -69 -35 -122 -54 -182 -66 -47 -9 -110 -25 -140 -35
-96 -33 -303 -99 -364 -116 -93 -26 -142 -53 -169 -93 -20 -31 -37 -41 -98
-61 -41 -14 -94 -34 -119 -44 -43 -18 -128 -43 -250 -72 -30 -7 -116 -30 -190
-50 -74 -21 -162 -43 -195 -50 -33 -7 -87 -19 -120 -28 -33 -8 -112 -20 -175
-27 -109 -12 -118 -11 -174 9 -54 19 -88 21 -375 26 -498 9 -643 20 -752 55
-52 17 -112 30 -141 30 -28 0 -89 9 -137 21 -47 11 -106 25 -131 30 -25 6 -79
32 -121 60 -50 32 -86 49 -107 49 -17 0 -47 11 -66 24 -19 13 -81 42 -138 66
-57 23 -137 58 -178 77 -41 19 -108 44 -148 54 -104 26 -335 150 -472 254 -30
22 -86 59 -125 82 -69 40 -138 98 -166 139 -14 20 -247 214 -297 246 -15 10
-40 18 -56 18 -22 0 -40 12 -75 50 -26 28 -65 63 -88 78 -65 43 -218 174 -244
209 -24 32 -37 40 -139 87 -30 14 -86 48 -125 76 -38 27 -97 62 -131 78 -64
31 -89 58 -167 179 -49 77 -61 87 -119 97 -20 4 -56 22 -78 41 -23 19 -46 35
-51 35 -16 0 -62 104 -79 180 -13 59 -15 100 -10 190 6 101 4 125 -16 200 -12
47 -28 114 -34 150 -7 36 -15 70 -20 75 -4 6 -13 28 -19 50 -7 22 -19 54 -27
70 -7 17 -34 84 -60 150 -42 110 -58 158 -100 300 -17 56 -38 362 -31 441 3
28 17 74 31 102 14 28 26 57 26 65 0 7 22 35 50 62 27 27 64 70 82 97 18 26
40 51 50 53 9 3 51 43 95 89 43 45 85 87 94 92 9 5 26 25 36 44 13 22 28 36
44 38 79 11 97 21 137 85 62 98 194 209 307 257 34 14 47 29 74 81 35 67 113
149 191 202 25 16 91 73 146 126 56 53 116 107 134 120 18 14 41 44 51 67 16
35 27 45 81 68 70 30 75 35 154 153 30 45 83 108 117 140 76 70 152 174 179
246 20 54 53 97 74 97 15 0 24 -33 24 -92 0 -63 23 -65 39 -4 6 24 24 72 39
108 16 35 37 95 46 133 28 112 83 187 175 241 21 12 57 56 98 119 36 55 89
125 119 155 237 242 254 261 254 285 0 13 -5 27 -10 30 -23 14 17 61 81 94 24
13 39 30 45 53 15 48 136 218 195 275 59 56 109 136 134 211 19 59 59 110 110
142 19 11 51 44 71 73 20 29 47 59 58 67 57 40 179 156 189 179 6 14 32 58 58
96 26 39 58 93 72 120 23 47 190 223 249 264 13 9 72 68 132 131 128 137 204
203 349 306 59 41 114 86 123 99 9 13 32 27 57 33 34 9 57 27 121 96 43 47 87
98 97 115 10 17 31 37 46 45 32 17 133 112 133 126 0 5 10 12 23 15 29 9 126
82 155 117 13 15 63 47 110 70 48 23 114 65 147 93 33 28 87 71 120 95 33 24
72 55 87 68 16 15 46 28 75 32 59 10 160 69 208 121 19 21 49 64 66 95 38 66
62 78 140 70 51 -6 60 -4 88 20 35 29 60 73 85 152 11 31 26 57 39 64 56 29
154 125 185 180 44 77 97 230 112 320 6 40 25 113 42 163 25 72 29 99 24 140
-3 27 -10 80 -14 116 -9 73 -32 119 -62 119 -14 0 -29 -18 -51 -62 -67 -133
-160 -242 -234 -273 -16 -7 -40 -24 -53 -38 -26 -27 -64 -45 -167 -77 -44 -14
-77 -31 -87 -45 l-18 -23 75 5 c69 5 75 4 75 -13 0 -42 -146 -91 -290 -96 -63
-3 -67 -1 -126 42 -34 25 -76 53 -93 62 -39 22 -40 51 -4 115 23 40 27 58 24
108 -7 126 -5 173 7 265 18 136 47 254 103 421 38 112 49 161 49 208 0 50 5
69 24 94 40 54 67 116 77 180 6 34 23 91 40 128 16 37 29 74 29 82 0 27 59
132 83 147 47 29 127 132 142 183 8 27 42 98 75 157 33 59 60 111 60 116 0 5
39 49 85 97 47 49 110 121 140 160 30 40 69 91 87 114 18 23 41 54 51 68 12
16 27 26 40 24 48 -3 57 4 103 73 70 105 95 130 200 203 52 36 140 112 196
169 109 108 196 166 496 331 105 58 141 84 209 152 72 73 94 89 200 139 65 31
139 65 165 75 42 15 103 49 208 114 19 12 60 30 90 40 86 28 165 71 204 111
22 22 73 54 128 80 51 23 102 51 115 62 32 29 102 67 148 82 22 7 58 23 80 35
22 13 85 35 140 50 125 33 167 45 335 91 74 20 171 44 215 54 53 11 101 29
140 53 97 59 167 94 220 110 28 8 74 24 104 36 29 12 107 31 173 42 66 11 139
26 161 34 23 8 65 19 92 24 61 13 146 52 142 66 -2 6 -20 11 -40 13 -55 5 -64
24 -25 54 54 41 90 55 155 61 41 3 86 16 130 37 58 27 84 34 173 40 64 4 117
13 135 23 71 37 283 137 292 137 6 0 64 18 129 41 77 26 149 43 205 49 61 6
102 16 139 35 29 15 96 42 149 60 53 18 150 51 216 74 66 23 180 57 252 76 73
19 146 41 162 50 17 8 36 15 43 15 7 0 26 7 43 16 16 8 63 24 105 35 41 11
108 35 149 54 40 19 85 35 100 35 46 0 124 27 206 70 114 60 161 77 276 100
95 20 135 36 259 106 33 19 56 24 85 22 27 -3 70 6 135 29 52 19 124 41 160
50 78 19 112 35 142 68 27 29 92 49 233 72 55 9 172 40 260 69 88 29 177 55
197 57 20 3 50 16 67 28 46 34 177 29 312 -11 56 -17 114 -32 128 -35 14 -2
53 -9 86 -15 33 -6 103 -17 155 -26 81 -13 115 -25 235 -84 111 -55 152 -81
195 -125 30 -30 102 -94 159 -142 102 -87 121 -112 121 -158 0 -14 16 -53 35
-87 47 -87 55 -159 25 -229 -16 -38 -20 -62 -15 -88 16 -94 16 -132 0 -182
-14 -42 -17 -76 -13 -178 5 -112 8 -132 33 -182 43 -86 79 -104 245 -121 100
-11 164 -12 245 -5 61 5 164 9 230 8 152 -2 446 15 516 30 54 12 99 34 99 50
0 4 -17 11 -37 14 -79 13 -93 17 -93 25 0 5 19 14 43 20 23 6 83 24 133 40 91
29 277 60 358 60 36 0 53 7 93 38 55 44 63 47 160 72 91 24 139 49 183 95 72
76 235 164 360 195 85 21 100 28 145 70 55 52 84 70 112 70 10 0 57 25 103 55
47 30 105 62 130 71 95 34 147 60 190 100 25 22 70 53 100 69 60 30 71 36 115
65 17 11 39 20 50 20 12 0 39 10 60 21 68 36 316 103 423 114 71 8 131 28 144
48 4 7 8 31 8 53 0 32 5 45 23 57 21 14 20 16 -65 55 -48 23 -110 44 -140 48
-70 8 -111 18 -245 60 -96 30 -252 66 -518 119 -112 22 -263 44 -350 50 -114
9 -123 12 -141 47 -13 26 -15 49 -11 116 5 72 11 90 43 143 27 44 52 71 93 97
31 20 94 75 141 123 47 48 99 94 116 103 17 8 34 22 37 30 3 8 40 40 82 71 41
31 75 60 75 65 0 5 42 40 93 78 92 70 187 157 187 172 0 4 44 36 98 71 53 34
123 86 155 116 32 29 65 53 73 53 25 0 83 44 95 73 6 15 25 37 42 49 16 12 47
41 69 64 22 24 57 54 77 65 20 12 54 41 77 63 22 23 75 70 119 106 151 125
241 208 266 244 13 21 68 71 121 112 54 41 115 95 135 120 21 24 44 44 53 44
8 0 40 13 70 28 43 21 64 40 94 86 42 63 101 124 223 228 158 136 248 221 265
246 10 15 49 56 86 92 67 63 155 172 237 294 22 33 75 95 117 137 57 57 80 88
88 119 6 22 30 82 54 133 24 51 57 136 75 188 17 52 53 129 79 172 26 44 57
95 69 114 11 20 42 57 67 84 25 26 48 60 52 76 31 140 48 169 120 214 31 19
114 134 114 157 0 6 22 37 48 69 26 32 56 69 65 83 9 13 69 80 133 147 78 83
129 129 158 141 50 23 112 83 133 132 36 82 93 126 295 226 36 18 69 38 73 44
4 6 44 28 89 49 46 21 111 57 146 80 35 23 99 61 142 83 44 23 84 50 89 59 14
27 128 79 172 79 21 0 52 7 70 17 18 9 57 24 87 34 58 19 217 76 285 102 73
28 151 47 290 72 76 13 156 31 179 40 23 8 76 19 118 24 54 6 92 17 123 35 38
23 63 28 167 36 68 6 161 15 208 20 47 6 148 15 225 20 77 5 190 14 250 19
143 12 925 18 1035 8 47 -4 141 -10 210 -12 69 -2 136 -6 150 -9 14 -3 144
-10 290 -16 146 -6 308 -16 360 -21 52 -5 145 -14 205 -19 61 -5 139 -16 175
-25 119 -28 336 -53 526 -59 65 -3 171 -12 234 -21 63 -9 142 -16 175 -17 35
0 89 -10 130 -23 54 -18 112 -26 250 -35 131 -8 187 -16 204 -27 14 -9 99 -36
190 -61 143 -38 182 -45 276 -47 61 -1 118 -5 128 -10 10 -4 35 -4 55 -1 98
18 300 0 468 -42 145 -37 174 -42 228 -42 37 0 71 -8 107 -25 64 -30 161 -95
166 -111 2 -6 -13 -31 -33 -55 -20 -24 -50 -68 -66 -97 -17 -28 -42 -61 -56
-73 -15 -11 -77 -69 -138 -127 -60 -59 -139 -129 -174 -157 -35 -27 -98 -82
-139 -121 -93 -86 -213 -173 -264 -191 -93 -32 -230 -108 -354 -196 -45 -31
-95 -56 -150 -72 -143 -44 -100 -76 110 -83 135 -4 194 2 357 40 63 14 251 74
340 109 132 50 191 69 259 80 162 27 360 79 431 113 41 20 82 36 91 36 20 0
115 50 189 100 30 20 91 49 135 64 44 16 109 47 145 71 36 23 89 55 119 71 30
16 77 49 105 74 66 59 93 75 137 84 29 5 47 19 84 64 62 76 115 118 200 157
67 32 124 79 206 170 19 22 69 69 109 105 41 36 97 90 125 120 27 30 108 112
178 181 71 70 138 144 149 165 11 22 28 49 37 60 27 36 132 176 172 229 70 96
151 229 211 349 73 148 115 202 168 216 33 9 42 18 64 63 45 95 127 497 111
547 -8 26 -23 25 -66 -4 -19 -13 -50 -29 -69 -34 -19 -6 -55 -18 -80 -27 -28
-10 -59 -14 -81 -11 -38 6 -115 -18 -275 -87 -100 -43 -137 -51 -163 -37 -29
15 -26 25 14 50 38 24 43 35 20 44 -20 7 -61 -9 -97 -39 -36 -31 -94 -47 -178
-51 -98 -4 -160 -13 -184 -28 -11 -8 -59 -17 -106 -20 -47 -3 -112 -10 -145
-15 -40 -6 -74 -5 -102 2 -39 10 -50 8 -125 -23 l-83 -33 -215 -2 c-118 -2
-300 -8 -405 -14 -104 -6 -226 -11 -270 -10 -44 1 -159 0 -255 -2 -96 -3 -364
2 -595 10 -231 8 -499 13 -595 12 -96 -2 -245 2 -330 8 -85 7 -236 13 -336 15
-99 1 -185 5 -191 9 -6 4 -91 12 -189 17 -99 6 -199 15 -224 20 -25 5 -81 12
-125 16 -44 3 -84 9 -89 11 -19 12 -247 30 -331 27 -61 -3 -105 1 -135 11 -26
9 -99 16 -175 19 -160 5 -386 22 -480 37 -64 10 -257 28 -330 31 -16 1 -83 -4
-148 -11 -71 -8 -169 -11 -245 -8 -260 12 -1354 28 -1557 23 -129 -3 -237 0
-279 7 -78 12 -390 -2 -646 -29 -80 -9 -168 -17 -197 -19 -29 -2 -63 -11 -77
-20 -16 -11 -35 -15 -53 -11 -34 8 -150 -15 -222 -44 -28 -11 -67 -20 -85 -20
-18 0 -55 -7 -82 -15 -27 -8 -64 -15 -81 -15 -18 0 -88 -13 -155 -29 -68 -16
-145 -32 -173 -35 -27 -4 -63 -10 -80 -15 -72 -22 -185 -41 -242 -41 -52 0
-72 -6 -135 -39 -40 -22 -100 -45 -133 -51 -59 -12 -123 -33 -257 -83 -98 -37
-151 -43 -201 -22 -69 28 -71 30 -92 71 -12 21 -30 52 -40 69 -18 26 -21 54
-27 270 -3 132 -6 350 -7 483 -1 134 -6 320 -12 413 -8 127 -8 182 1 218 9 40
9 58 -6 107 -12 40 -17 89 -15 153 2 130 -40 333 -77 375 -11 12 -34 66 -52
121 -18 55 -41 119 -51 141 -24 57 -86 376 -114 589 -9 66 -21 136 -26 155 -5
19 -16 76 -24 127 -15 97 -40 162 -78 203 -31 34 -54 94 -62 165 -3 33 -15 87
-26 120 -10 33 -33 130 -49 215 -17 85 -37 178 -45 205 -8 28 -26 104 -40 170
-14 66 -34 154 -45 195 -12 41 -25 119 -30 174 -7 76 -16 114 -40 163 -20 44
-30 81 -30 113 0 26 -6 85 -14 131 -8 46 -20 146 -26 223 -6 76 -13 146 -15
156 -2 10 -6 115 -10 234 -4 155 -10 225 -21 251 -8 19 -17 63 -21 98 -3 34
-10 70 -15 80 -12 24 -68 21 -143 -9z m-1413 -4373 c32 -12 123 -255 115 -306
-3 -20 3 -59 14 -96 29 -93 47 -192 54 -304 4 -55 16 -127 27 -160 25 -79 48
-182 48 -220 0 -17 9 -62 21 -100 13 -45 22 -108 24 -175 2 -58 8 -126 14
-153 6 -26 13 -125 16 -220 3 -94 7 -191 10 -213 12 -88 6 -903 -8 -1109 -9
-126 -11 -222 -6 -240 14 -47 11 -89 -10 -137 -13 -31 -20 -82 -25 -182 -5
-91 -15 -162 -27 -202 -11 -34 -38 -147 -60 -250 -22 -103 -44 -195 -50 -205
-5 -10 -9 -34 -9 -54 0 -41 -49 -171 -81 -217 -15 -20 -24 -55 -30 -109 -6
-49 -22 -114 -43 -167 -19 -48 -46 -121 -60 -162 -19 -54 -43 -96 -86 -150
-33 -41 -60 -83 -60 -92 0 -9 -22 -44 -49 -78 -35 -44 -60 -89 -86 -163 -36
-96 -43 -107 -121 -190 -46 -48 -84 -94 -84 -101 0 -20 -84 -132 -154 -204
-34 -35 -73 -81 -87 -103 -59 -87 -122 -156 -202 -222 -25 -20 -66 -68 -92
-107 -54 -82 -159 -168 -280 -231 -44 -22 -87 -47 -96 -56 -10 -8 -35 -26 -57
-41 -22 -15 -64 -45 -94 -68 -29 -23 -64 -45 -78 -49 -31 -10 -124 -50 -170
-74 -19 -11 -36 -28 -38 -39 -4 -26 -29 -47 -74 -61 -20 -7 -78 -37 -128 -67
-51 -31 -144 -74 -213 -99 -170 -61 -441 -167 -507 -197 -30 -14 -102 -42
-160 -62 -95 -32 -113 -35 -174 -29 -91 8 -108 23 -139 125 -23 75 -26 104
-32 313 -3 127 -10 280 -16 340 -6 74 -6 178 1 315 6 113 15 338 20 500 9 294
20 448 39 590 6 41 22 160 37 265 14 104 28 193 30 196 2 4 13 67 24 140 11
74 27 159 35 189 8 30 15 76 15 101 0 25 9 79 19 120 26 97 96 424 111 515 8
51 21 87 46 125 28 44 34 63 34 107 0 29 4 62 10 72 14 27 66 61 97 65 25 2
53 28 53 47 0 5 -11 13 -25 18 -29 11 -30 19 -9 91 13 44 90 209 125 269 39
65 103 236 114 303 4 24 21 56 48 87 23 27 58 70 77 95 19 26 52 68 72 93 21
26 43 62 49 82 36 109 92 226 141 291 102 138 145 204 181 275 26 51 53 86 99
127 35 31 69 63 77 71 66 70 86 97 103 136 30 70 68 119 113 146 23 13 64 52
91 87 91 117 145 175 170 181 17 5 31 22 48 59 28 62 55 88 119 111 26 10 55
29 63 42 9 13 31 33 49 44 20 13 44 42 62 78 23 45 38 61 71 77 23 11 66 44
96 73 29 28 57 52 60 52 4 0 36 23 72 50 37 28 89 62 118 77 28 14 69 40 91
57 73 59 136 98 195 121 32 13 98 50 147 83 111 75 117 78 155 63z m9582
-21552 c19 -23 43 -65 52 -93 9 -28 27 -74 41 -103 13 -29 27 -69 30 -89 9
-55 -15 -40 -52 32 -16 33 -38 71 -48 85 -63 86 -96 162 -84 193 10 25 23 19
61 -25z m19720 -10145 c22 -9 20 -17 -14 -54 l-30 -32 -10 27 c-13 34 -13 38
2 53 13 13 28 15 52 6z m285 -22 c19 -9 34 -21 33 -27 -1 -15 -115 -39 -153
-31 -19 3 -47 17 -64 31 -25 21 -28 26 -15 35 26 17 161 12 199 -8z m-28556
-1359 c-7 -2 -21 -2 -30 0 -10 3 -4 5 12 5 17 0 24 -2 18 -5z m20657 -3786 c0
-29 -19 -57 -39 -57 -22 0 -31 26 -31 94 l0 50 35 -34 c19 -19 35 -42 35 -53z
m-37020 34 c0 -5 -7 -11 -15 -15 -15 -5 -20 5 -8 17 9 10 23 9 23 -2z"/>
<path d="M22054 56225 c-20 -30 -10 -47 11 -19 14 18 20 44 10 44 -2 0 -12
-11 -21 -25z"/>
<path d="M21227 54232 c-20 -22 -23 -72 -4 -72 22 0 47 34 47 63 0 32 -19 35
-43 9z"/>
<path d="M45000 51027 c-3 -2 -38 -8 -78 -11 -40 -4 -125 -15 -189 -26 -64
-11 -161 -20 -219 -20 -70 0 -116 -5 -141 -15 -19 -8 -44 -15 -56 -15 -11 0
-58 -22 -106 -49 -79 -46 -155 -74 -348 -131 -81 -24 -93 -43 -40 -65 48 -20
307 -59 499 -75 72 -6 138 -18 168 -30 28 -11 72 -20 98 -20 69 0 318 -19 387
-31 137 -22 420 -80 488 -100 79 -23 173 -49 287 -78 76 -19 387 -124 397
-134 3 -3 2 -11 -2 -17 -7 -12 -49 -10 -163 6 -23 3 -50 3 -59 0 -32 -13 11
-36 83 -46 78 -10 164 -29 179 -40 6 -4 33 -13 60 -20 28 -7 75 -28 106 -47
41 -25 73 -36 115 -40 43 -4 85 -18 154 -53 53 -27 113 -51 135 -55 22 -4 77
-27 122 -51 45 -24 128 -63 185 -88 176 -76 255 -114 320 -154 35 -22 113 -68
173 -102 61 -34 135 -86 166 -115 31 -30 69 -57 85 -60 82 -16 122 -28 156
-48 20 -12 62 -37 93 -56 31 -18 82 -59 113 -91 33 -32 89 -74 132 -97 41 -22
118 -66 170 -98 52 -32 124 -71 160 -88 35 -16 96 -53 135 -82 71 -53 101 -69
188 -100 29 -10 78 -43 120 -79 40 -35 113 -84 162 -110 50 -27 119 -67 155
-90 36 -24 79 -51 96 -62 17 -10 62 -40 100 -66 38 -25 96 -54 129 -63 84 -24
112 -39 171 -89 34 -29 75 -51 120 -66 41 -14 95 -42 133 -70 35 -27 91 -61
125 -76 33 -16 99 -48 146 -72 47 -24 105 -50 130 -59 192 -65 299 -117 386
-183 74 -57 145 -86 233 -93 35 -4 73 -13 85 -20 26 -18 201 -72 292 -91 38
-8 110 -33 159 -54 91 -39 113 -46 285 -81 211 -43 587 -78 730 -67 111 9 249
16 406 21 97 3 168 10 196 19 24 9 81 17 126 18 111 4 120 -4 103 -104 -13
-82 -15 -84 -102 -192 -39 -49 -94 -101 -146 -139 -45 -33 -128 -105 -182
-159 -55 -54 -105 -98 -112 -98 -6 0 -25 -11 -43 -25 -116 -95 -183 -135 -256
-155 -24 -6 -89 -37 -144 -67 -143 -77 -231 -106 -338 -109 -47 -1 -110 -9
-140 -17 -99 -28 -458 -45 -833 -39 -151 2 -248 10 -353 29 -28 5 -37 0 -67
-32 -50 -52 -52 -74 -19 -163 25 -65 35 -81 72 -105 58 -39 84 -82 76 -125 -5
-28 -2 -38 22 -64 16 -16 50 -41 76 -54 28 -14 59 -41 76 -66 40 -57 138 -156
193 -193 31 -22 54 -50 79 -98 21 -41 47 -75 65 -86 17 -10 38 -27 47 -37 9
-11 33 -35 53 -54 20 -19 51 -55 68 -78 18 -24 54 -58 80 -76 27 -18 101 -84
166 -147 64 -63 130 -125 147 -139 16 -14 36 -40 46 -57 23 -45 88 -83 140
-83 57 -1 105 -24 209 -102 47 -36 113 -82 147 -103 34 -21 62 -43 62 -50 0
-7 15 -24 33 -37 53 -41 253 -138 282 -138 9 0 43 -8 77 -17 51 -14 70 -26
107 -67 78 -84 93 -96 121 -96 15 0 33 7 40 15 26 31 74 10 147 -63 29 -30 98
-62 223 -107 96 -34 153 -55 270 -100 52 -21 117 -44 145 -52 27 -8 93 -34
145 -58 52 -23 115 -46 140 -50 71 -12 245 -77 365 -138 61 -30 134 -60 162
-66 29 -6 85 -26 125 -46 40 -19 102 -41 138 -48 75 -16 99 -27 157 -74 48
-38 101 -63 136 -63 13 0 42 -14 63 -31 54 -42 169 -99 203 -99 37 0 85 -17
142 -51 26 -15 89 -49 140 -75 52 -26 114 -60 139 -75 30 -19 66 -31 105 -35
58 -6 62 -8 130 -78 77 -80 92 -90 147 -100 34 -6 74 -34 160 -112 15 -14 39
-31 55 -39 35 -19 159 -20 166 -2 17 49 -89 291 -174 399 -16 20 -29 40 -29
43 0 4 -9 20 -21 36 -17 25 -27 29 -65 29 -38 0 -50 5 -75 33 -35 37 -91 123
-144 222 -51 92 -75 115 -121 115 -48 0 -86 29 -122 93 -22 39 -49 66 -103
105 -85 59 -221 157 -309 222 -107 79 -215 150 -226 150 -22 0 -109 52 -123
73 -44 66 -134 131 -222 162 -21 8 -78 40 -126 72 -48 32 -109 71 -134 86 -26
14 -56 43 -68 63 -18 30 -42 45 -147 95 -69 33 -143 71 -163 85 -20 13 -76 40
-125 59 -110 45 -155 73 -231 146 -37 35 -79 65 -110 76 -27 11 -67 31 -88 46
-21 14 -61 33 -90 43 -81 26 -183 97 -196 136 -20 61 -53 85 -164 119 -56 17
-124 43 -152 56 -67 34 -208 181 -243 253 -15 30 -47 75 -73 100 -49 48 -61
70 -50 89 12 19 110 41 188 41 87 0 232 33 430 99 81 27 164 52 183 56 19 4
81 25 137 47 l102 39 -2 36 c-2 33 2 37 49 64 29 16 84 39 124 50 86 24 166
63 239 118 30 22 75 48 100 57 93 33 126 50 169 87 24 20 48 37 53 37 5 0 38
27 73 59 40 37 80 64 105 72 27 8 63 33 104 73 76 74 108 96 142 96 24 0 113
80 272 243 10 10 42 42 72 70 180 173 248 245 346 365 11 14 41 48 66 76 26
28 54 67 64 86 10 19 29 49 41 66 13 17 42 69 65 115 63 129 81 149 134 149
57 0 65 12 106 165 17 66 38 143 46 170 23 81 28 204 10 247 -14 33 -20 37
-62 44 -25 3 -85 2 -132 -5 -47 -6 -89 -8 -93 -6 -5 3 -127 5 -272 4 -145 -1
-290 -1 -323 -1 -400 1 -536 4 -750 16 -137 9 -326 15 -420 14 -195 -1 -369
13 -505 40 -52 11 -129 23 -170 26 -77 6 -147 17 -280 41 -41 8 -109 17 -150
21 -41 3 -95 13 -120 20 -25 8 -70 14 -100 14 -30 1 -82 7 -115 15 -33 8 -76
15 -96 15 -20 0 -62 9 -95 20 -32 12 -86 27 -119 35 -33 7 -89 21 -125 29 -36
9 -135 27 -220 41 -125 20 -168 31 -225 59 -39 19 -97 39 -130 45 -33 5 -80
17 -105 26 -25 9 -83 29 -130 44 -47 16 -130 44 -185 63 -177 63 -302 98 -376
107 -55 7 -83 17 -116 40 -24 17 -47 31 -52 31 -4 0 -18 11 -30 24 -31 33 -19
50 30 42 48 -8 50 0 6 19 -24 10 -44 11 -73 5 -61 -15 -73 -12 -80 14 -8 32
-133 106 -180 106 -49 0 -133 35 -218 90 -42 27 -108 61 -148 74 -40 14 -111
39 -158 57 -47 17 -96 34 -110 39 -14 4 -64 26 -111 49 -48 23 -92 41 -97 41
-17 0 -212 100 -262 134 -26 18 -81 43 -121 55 -144 44 -255 83 -359 126 -194
81 -335 136 -366 144 -43 11 -79 40 -92 73 -13 36 -87 70 -377 173 -82 29
-181 66 -220 82 -38 16 -99 37 -135 47 -36 10 -90 31 -120 46 -31 16 -80 33
-110 39 -102 19 -234 50 -385 91 -197 53 -360 88 -465 100 -58 7 -104 20 -145
39 -33 16 -82 35 -110 42 -27 6 -77 30 -110 53 l-60 41 -180 1 c-99 1 -229 7
-290 14 -62 6 -219 11 -360 10 -137 -1 -308 1 -380 5 -71 4 -132 5 -135 2z"/>
<path d="M38130 46100 c-104 -49 -137 -50 -183 -10 -21 18 -46 30 -63 30 -32
0 -156 -30 -164 -39 -3 -3 -25 -19 -50 -35 -38 -25 -56 -30 -126 -32 -44 -2
-93 -8 -108 -14 -15 -5 -51 -10 -79 -11 -59 0 -109 -9 -216 -38 -68 -18 -168
-32 -456 -61 -60 -7 -292 -13 -515 -15 -223 -1 -466 -7 -540 -13 -318 -25
-407 -32 -435 -38 -16 -3 -79 -10 -140 -15 -60 -5 -157 -14 -215 -19 -58 -5
-177 -14 -265 -19 -88 -6 -227 -15 -310 -20 -285 -20 -289 -20 -305 -6 -10 9
-50 14 -130 15 -231 3 -255 2 -280 -20 -13 -12 -37 -20 -57 -20 -44 0 -169
-18 -208 -31 -51 -15 -363 -58 -505 -69 -74 -6 -182 -22 -240 -35 -58 -14
-128 -25 -155 -25 -28 -1 -95 -7 -150 -15 -55 -8 -167 -19 -250 -25 -82 -5
-184 -14 -225 -19 -41 -6 -111 -13 -155 -16 -44 -3 -119 -12 -168 -21 -48 -8
-122 -16 -165 -18 -85 -4 -195 -25 -312 -61 -104 -32 -194 -53 -265 -60 -33
-3 -84 -13 -113 -21 -34 -9 -70 -13 -97 -9 -40 7 -45 5 -66 -25 -35 -47 -88
-74 -253 -130 -150 -51 -201 -60 -209 -37 -3 9 -12 8 -35 -5 -16 -10 -47 -18
-67 -18 -29 0 -36 -3 -31 -15 7 -18 -23 -35 -62 -35 -17 0 -44 -12 -67 -30
-21 -16 -43 -30 -49 -30 -7 0 -28 -16 -47 -36 -54 -55 -121 -93 -192 -108 -38
-8 -84 -27 -109 -43 -24 -16 -61 -42 -83 -57 -22 -15 -68 -41 -102 -56 -35
-16 -86 -51 -115 -77 -71 -65 -124 -106 -173 -131 -91 -46 -235 -206 -235
-262 0 -9 -11 -34 -25 -54 -39 -57 -35 -60 59 -53 121 10 242 34 311 62 111
46 147 53 204 42 46 -10 57 -8 104 13 60 27 168 36 577 45 134 3 262 11 285
17 22 6 58 12 80 13 99 7 278 26 285 30 4 2 34 0 66 -5 36 -6 97 -6 154 -1
100 9 224 -2 249 -22 18 -15 104 -26 228 -28 90 -1 105 1 129 20 35 27 87 27
132 -1 29 -18 63 -24 196 -34 142 -12 439 -39 536 -49 60 -7 120 -27 120 -41
0 -16 32 -27 55 -18 9 4 28 18 41 30 12 13 32 24 43 24 38 0 116 -32 150 -62
29 -25 38 -29 72 -23 62 11 181 7 354 -9 187 -18 252 -29 292 -49 36 -19 169
-47 222 -47 22 0 61 -7 87 -16 25 -8 57 -13 69 -10 34 9 52 -1 76 -41 28 -44
21 -118 -14 -166 -14 -17 -27 -45 -31 -62 -4 -16 -22 -70 -41 -120 -36 -92
-56 -122 -187 -267 -38 -42 -68 -78 -68 -81 0 -4 -23 -30 -51 -59 -28 -29 -57
-66 -66 -83 -54 -105 -139 -211 -288 -359 -88 -89 -174 -178 -189 -199 -32
-42 -108 -100 -146 -112 -30 -9 -96 -71 -152 -143 -22 -29 -80 -81 -127 -116
-47 -35 -113 -89 -146 -120 -33 -31 -96 -84 -139 -119 -44 -34 -98 -78 -120
-98 -23 -20 -66 -51 -96 -68 -30 -18 -80 -52 -110 -77 -86 -70 -152 -112 -211
-135 -30 -12 -72 -39 -94 -60 -70 -66 -307 -193 -491 -264 -61 -24 -185 -80
-276 -124 -91 -45 -198 -91 -238 -102 -40 -11 -92 -31 -115 -44 -23 -14 -56
-25 -72 -25 -69 0 -230 -70 -256 -112 -29 -45 81 -84 281 -100 125 -10 150 -9
195 5 81 25 299 48 437 45 173 -3 269 3 307 19 18 7 45 13 61 13 16 0 49 7 73
16 64 24 215 53 239 47 11 -3 27 1 36 8 9 7 44 17 78 21 202 27 208 28 351 76
114 38 170 62 219 96 29 19 51 26 88 26 47 0 119 27 133 50 10 17 98 58 151
71 164 40 432 142 449 170 8 13 143 79 161 79 7 0 23 13 36 29 36 46 97 86
171 110 37 13 69 27 72 32 3 4 36 25 73 46 37 20 101 63 143 95 42 31 99 66
125 76 27 10 71 33 98 50 28 18 55 32 60 32 6 0 47 35 91 76 52 50 103 87 145
107 69 32 116 65 191 133 30 28 59 44 85 48 22 4 52 17 66 29 34 30 120 134
146 178 26 44 154 154 225 194 76 43 150 101 242 192 135 131 289 302 316 351
16 30 39 54 63 67 39 20 171 159 197 206 52 95 62 107 150 177 30 24 86 80
124 124 39 45 111 124 160 177 50 53 137 150 195 215 58 66 123 140 145 165
23 25 53 63 69 84 27 37 30 38 75 32 l46 -6 41 58 c23 32 51 78 63 102 13 24
62 83 109 132 48 48 94 95 102 104 8 9 62 62 120 118 58 56 116 116 131 132
14 17 47 47 73 69 26 21 67 64 90 95 23 32 68 81 101 110 33 29 78 71 101 92
22 21 66 53 97 71 57 34 283 230 373 324 28 30 56 54 62 54 6 0 19 15 28 33 9
17 39 56 66 85 65 69 57 82 -51 82 -68 0 -85 -5 -161 -40z"/>
<path d="M36943 46063 c-7 -2 -13 -14 -13 -25 0 -18 4 -20 37 -15 45 8 64 24
43 37 -16 10 -47 12 -67 3z"/>
<path d="M36870 46010 c-13 -8 -12 -10 3 -10 9 0 17 5 17 10 0 12 -1 12 -20 0z"/>
<path d="M48462 43392 c-23 -7 -12 -17 63 -57 41 -22 78 -49 83 -60 6 -12 2
-39 -10 -78 -31 -100 -28 -110 58 -191 83 -77 107 -109 170 -231 23 -44 57
-110 77 -147 20 -36 46 -90 57 -120 11 -30 32 -66 46 -79 50 -46 144 -194 212
-334 8 -16 25 -43 37 -60 12 -16 35 -55 50 -85 34 -66 71 -125 106 -166 49
-59 169 -322 169 -372 0 -42 13 -64 90 -147 37 -40 56 -76 95 -175 26 -69 52
-130 56 -135 7 -9 36 -80 88 -215 10 -25 30 -62 44 -83 14 -21 35 -63 47 -93
11 -30 26 -65 34 -77 18 -27 46 -134 46 -173 0 -15 18 -57 39 -93 22 -36 55
-115 75 -176 19 -60 42 -128 50 -150 8 -22 15 -58 16 -81 0 -30 6 -47 25 -64
33 -31 38 -23 24 34 -12 47 -6 96 11 96 15 0 53 -68 89 -160 92 -233 124 -323
146 -410 34 -133 51 -178 89 -235 99 -151 134 -228 177 -395 57 -222 101 -340
145 -393 13 -16 24 -34 24 -41 0 -6 15 -25 33 -42 23 -23 36 -47 45 -90 8 -32
27 -82 43 -110 17 -29 29 -66 29 -86 0 -48 27 -123 67 -185 18 -29 33 -56 33
-60 0 -4 14 -26 30 -47 17 -22 30 -46 30 -53 0 -8 11 -29 23 -46 13 -18 41
-79 61 -137 20 -58 52 -127 70 -155 49 -75 53 -84 71 -170 11 -54 27 -96 49
-130 46 -70 60 -99 85 -182 19 -63 26 -74 59 -93 29 -16 45 -37 71 -90 18 -38
37 -84 41 -102 5 -18 16 -60 25 -93 10 -33 20 -70 22 -81 5 -24 -17 -49 -85
-94 -48 -31 -62 -33 -352 -50 -91 -5 -190 -14 -220 -20 -113 -20 -275 -29
-640 -34 -206 -3 -435 -11 -508 -17 -111 -9 -146 -9 -215 4 -47 9 -143 15
-224 16 -79 0 -232 7 -340 15 -160 12 -597 30 -688 28 -40 0 -340 28 -394 38
-175 31 -260 43 -293 42 -21 -1 -68 -3 -105 -4 -54 -2 -80 2 -122 21 -35 15
-88 26 -145 31 -92 9 -145 22 -181 47 -11 7 -38 13 -61 13 -99 0 -363 72 -449
122 -11 7 -50 15 -87 19 -40 3 -88 16 -120 32 -58 28 -110 41 -206 51 -35 4
-84 16 -110 27 -25 11 -103 32 -171 45 -69 14 -142 34 -163 45 -20 10 -46 19
-57 19 -11 0 -55 14 -98 31 -58 24 -97 33 -153 35 -83 3 -124 15 -157 46 -28
26 -251 106 -432 153 -89 24 -139 48 -269 130 -83 52 -418 165 -444 149 -13
-8 -10 -46 8 -98 9 -26 14 -59 11 -73 -4 -22 5 -39 47 -87 28 -33 76 -85 108
-115 31 -31 59 -66 63 -78 10 -35 83 -106 161 -156 55 -36 77 -56 93 -90 12
-24 21 -48 21 -54 0 -9 21 -55 59 -132 15 -30 60 -54 108 -56 26 -2 51 -4 55
-4 4 -1 17 -20 29 -43 12 -23 30 -54 41 -69 11 -14 24 -45 29 -69 13 -55 95
-169 129 -176 112 -25 128 -40 179 -175 31 -81 130 -263 179 -329 15 -19 47
-57 72 -85 43 -46 190 -280 190 -302 0 -5 13 -27 29 -49 15 -21 36 -68 44
-103 18 -72 26 -86 91 -158 52 -58 85 -123 86 -169 0 -16 13 -50 29 -75 15
-25 34 -70 41 -100 7 -30 21 -72 31 -94 40 -89 116 -346 152 -515 25 -116 31
-167 30 -257 -1 -163 -4 -174 -68 -223 -88 -68 -107 -67 -360 20 -49 18 -124
38 -165 45 -41 8 -127 23 -190 35 -74 14 -143 34 -193 56 -63 29 -96 37 -180
44 -56 5 -118 13 -137 18 -19 6 -91 13 -160 16 -69 4 -196 15 -284 26 -99 12
-216 20 -311 19 -142 -1 -331 18 -410 41 -83 24 -376 -12 -645 -78 -64 -15
-136 -26 -185 -27 -82 -1 -180 -16 -270 -41 -27 -7 -81 -20 -120 -28 -94 -20
-212 -62 -255 -91 -52 -36 -118 -50 -168 -38 -46 12 -62 3 -62 -33 0 -38 24
-49 81 -36 42 10 62 9 137 -9 78 -18 113 -20 337 -17 173 2 282 -1 355 -11 58
-7 152 -16 210 -20 58 -3 115 -12 127 -19 12 -6 48 -16 80 -21 52 -7 103 -16
283 -51 30 -5 84 -15 120 -21 36 -6 88 -17 115 -24 28 -8 93 -18 145 -24 52
-5 113 -16 135 -24 22 -8 65 -18 95 -22 88 -12 212 -54 243 -83 15 -14 27 -36
27 -49 0 -33 80 -68 197 -87 52 -8 136 -33 206 -60 82 -32 132 -46 166 -46 38
0 70 -11 157 -55 60 -30 116 -55 124 -55 21 0 134 -55 173 -84 18 -13 43 -27
57 -31 59 -17 198 -90 230 -120 19 -18 58 -48 85 -66 28 -19 82 -59 120 -90
43 -35 89 -63 120 -72 88 -26 118 -44 189 -111 52 -50 81 -69 120 -80 41 -12
67 -30 118 -81 36 -36 73 -65 82 -65 8 0 31 -15 50 -32 19 -18 40 -38 48 -44
7 -6 40 -43 73 -82 53 -63 68 -74 130 -98 119 -45 185 -42 234 10 33 35 102
229 111 311 4 39 15 108 24 155 9 47 21 159 26 250 5 91 14 192 21 225 6 35 8
92 5 135 -19 230 -25 339 -26 465 -1 225 -16 366 -53 513 -23 87 -42 141 -56
156 -30 32 -41 78 -41 169 0 43 -4 86 -10 96 -5 10 -11 45 -13 78 -3 44 -18
90 -56 175 -28 63 -64 156 -80 206 -17 51 -37 104 -45 120 -8 15 -17 46 -21
67 -7 37 -23 76 -90 220 -24 51 -65 205 -65 244 0 93 151 180 234 136 15 -8
33 -15 38 -15 5 0 23 -13 41 -30 31 -29 34 -30 132 -29 55 1 141 -6 190 -15
50 -9 144 -18 210 -20 66 -3 136 -10 155 -16 19 -6 87 -13 150 -16 63 -2 129
-7 145 -10 38 -8 152 -21 280 -33 55 -6 143 -15 195 -21 52 -6 136 -15 185
-20 83 -10 287 -45 397 -69 26 -6 67 -19 90 -29 24 -11 68 -22 98 -26 30 -4
100 -15 155 -26 189 -38 473 -63 595 -55 142 11 306 7 490 -10 197 -18 475
-20 1145 -11 549 7 672 17 777 61 35 15 113 44 173 64 61 21 137 50 170 64 34
15 79 27 104 27 24 0 69 7 101 15 31 8 101 19 154 25 173 18 304 49 389 91 82
41 106 46 136 28 11 -7 32 -9 54 -5 29 5 40 14 53 41 20 43 73 90 128 115 22
10 82 37 131 61 50 23 130 59 178 79 102 41 129 63 157 128 35 78 15 99 -123
128 -73 15 -113 33 -164 71 -17 13 -66 39 -108 56 -101 43 -249 151 -366 268
-52 52 -120 111 -151 129 -34 20 -64 48 -77 69 -11 20 -40 53 -65 74 -25 21
-64 64 -86 95 -73 104 -154 199 -205 242 -47 40 -65 64 -96 132 -7 16 -44 65
-83 111 -39 45 -76 94 -83 107 -6 14 -30 64 -52 111 -29 62 -51 94 -78 115
-48 37 -75 68 -142 168 -30 45 -62 93 -72 107 -9 14 -23 43 -29 65 -12 38 -30
65 -149 225 -30 40 -72 108 -93 151 -21 43 -63 118 -92 166 -29 48 -66 112
-81 142 -15 30 -57 99 -94 153 -106 156 -129 196 -152 266 -28 84 -61 142
-118 208 -43 48 -78 109 -131 228 -14 31 -44 69 -79 102 -47 42 -68 73 -114
165 -30 62 -76 143 -100 180 -58 87 -86 142 -103 198 -12 42 -83 160 -123 205
-10 11 -26 43 -36 70 -13 36 -38 69 -90 120 -51 49 -76 82 -85 110 -16 55
-125 277 -168 345 -93 146 -151 252 -176 322 -31 86 -75 153 -110 169 -13 6
-30 22 -37 36 -7 13 -36 44 -65 69 -29 24 -74 77 -100 117 -26 39 -61 87 -77
106 -16 19 -36 51 -44 70 -8 20 -22 44 -31 54 -8 10 -32 48 -51 86 -33 63 -77
130 -196 300 -25 36 -74 92 -109 125 -43 41 -77 85 -101 131 -38 73 -63 115
-130 218 -36 55 -48 66 -121 102 -101 51 -141 81 -164 125 -43 84 -95 134
-192 183 -68 35 -115 69 -178 128 -55 52 -111 93 -160 119 -42 21 -95 59 -120
85 -25 26 -75 64 -112 86 -37 22 -70 44 -73 49 -17 28 -142 73 -173 62z"/>
<path d="M20939 43057 c-25 -18 -65 -47 -90 -65 -24 -19 -55 -38 -69 -44 -29
-11 -96 -52 -195 -118 -38 -26 -92 -55 -118 -64 -69 -23 -122 -52 -207 -111
-41 -29 -97 -65 -125 -79 -27 -15 -75 -43 -105 -62 -30 -19 -66 -37 -80 -41
-42 -10 -133 -54 -182 -89 -33 -24 -71 -39 -125 -50 -43 -9 -87 -21 -98 -27
-42 -22 -94 -70 -99 -92 -6 -24 -67 -55 -109 -55 -12 0 -38 -11 -57 -24 -19
-13 -46 -27 -60 -31 -14 -4 -50 -22 -80 -40 -30 -19 -94 -49 -141 -68 -47 -19
-94 -39 -105 -45 -10 -6 -45 -23 -76 -37 -32 -15 -85 -44 -118 -66 -54 -37
-150 -78 -182 -80 -7 0 -27 -10 -44 -22 -17 -12 -70 -48 -117 -80 -48 -32 -89
-62 -92 -67 -3 -4 -19 -11 -35 -15 -18 -4 -35 -17 -42 -32 -14 -28 -16 -29
-93 -64 -50 -23 -176 -97 -185 -108 -24 -30 -114 -89 -200 -129 -108 -51 -160
-89 -160 -117 0 -9 -5 -13 -10 -10 -6 4 -25 -6 -43 -22 -18 -16 -47 -35 -64
-42 -18 -7 -39 -29 -53 -54 -13 -23 -60 -78 -104 -123 -230 -229 -331 -343
-408 -458 -44 -67 -95 -139 -113 -161 -48 -60 -91 -143 -105 -204 -7 -30 -25
-82 -40 -115 -16 -34 -36 -88 -45 -121 -10 -33 -27 -91 -40 -130 -12 -38 -35
-124 -50 -190 -27 -117 -77 -238 -109 -264 -20 -16 -20 -15 -1 82 18 92 18
107 5 107 -25 0 -70 -157 -70 -245 0 -24 -10 -60 -25 -88 -14 -26 -30 -73 -36
-105 -10 -62 -16 -86 -49 -207 -47 -167 -55 -190 -87 -237 -36 -52 -68 -156
-58 -188 10 -32 108 -90 182 -108 38 -9 111 -17 163 -17 52 -1 212 -7 355 -14
533 -26 674 -21 761 24 19 10 46 12 88 8 53 -4 76 0 171 31 61 21 127 49 147
63 20 14 50 32 67 42 89 49 133 81 196 142 39 37 89 79 113 92 48 27 132 116
186 197 20 30 44 66 55 80 10 14 37 57 60 97 24 40 64 91 89 115 64 58 74 74
83 130 5 32 19 62 42 91 18 23 42 56 53 74 10 17 48 79 84 137 36 59 82 135
103 169 20 34 47 89 59 122 12 33 42 84 66 113 49 60 94 129 118 182 9 19 29
50 45 68 33 37 63 93 73 136 4 15 32 69 62 119 30 50 62 116 71 147 8 30 26
73 38 95 51 91 160 244 215 300 64 65 90 114 90 169 0 39 32 71 109 110 52 27
93 64 126 116 29 44 122 140 215 219 54 46 78 61 102 61 63 0 109 22 151 73
47 56 82 77 126 77 17 0 50 5 73 10 24 6 108 27 188 47 174 43 244 51 548 62
253 10 1476 -11 1702 -29 69 -5 190 -12 270 -15 376 -13 828 -25 950 -26 158
0 444 26 514 46 26 8 87 19 135 25 47 6 111 15 141 20 30 5 89 14 130 20 117
18 168 40 317 143 103 70 157 99 232 123 70 22 86 32 100 57 9 17 34 50 55 75
32 35 38 47 29 60 -15 25 -67 21 -408 -29 -77 -11 -171 -24 -210 -29 -38 -5
-95 -14 -125 -20 -30 -5 -169 -10 -310 -10 -236 -1 -368 6 -720 41 -58 5 -187
14 -287 19 -100 5 -191 13 -201 19 -10 5 -74 12 -143 15 -68 3 -221 12 -339
20 -118 8 -300 18 -405 21 -104 4 -260 10 -345 13 -221 10 -401 7 -505 -7 -49
-7 -153 -13 -230 -13 -77 0 -161 -4 -188 -10 -37 -8 -66 -6 -135 8 l-88 18
-110 -29 c-104 -27 -120 -29 -331 -29 -194 -1 -224 1 -239 15 -14 15 -15 22
-4 55 27 84 64 150 144 258 78 103 85 116 91 171 3 33 8 77 11 97 4 29 2 39
-13 47 -15 7 -29 3 -64 -22z"/>
<path d="M56290 23111 c0 -16 5 -33 10 -36 6 -4 10 6 10 24 0 16 -4 33 -10 36
-6 4 -10 -6 -10 -24z"/>
<path d="M56550 21828 c0 -51 13 -80 24 -52 8 20 -3 82 -15 90 -5 3 -9 -14 -9
-38z"/>
<path d="M23330 21680 c0 -5 5 -10 10 -10 6 0 10 5 10 10 0 6 -4 10 -10 10 -5
0 -10 -4 -10 -10z"/>
</g>
</svg>
